<mxfile host="app.diagrams.net" modified="2020-12-06T14:44:47.515Z" agent="5.0 (Macintosh; Intel Mac OS X 11_0_1) AppleWebKit/537.36 (KHTML, like Gecko) Chrome/87.0.4280.67 Safari/537.36" etag="78LSjCPKF4lmYO4OLUvT" version="13.10.9" type="github">
  <diagram id="8HK1GJJWmHkLG0BPRpww" name="Page-1">
    <mxGraphModel dx="1229" dy="556" grid="1" gridSize="10" guides="1" tooltips="1" connect="1" arrows="1" fold="1" page="1" pageScale="1" pageWidth="827" pageHeight="1169" background="none" math="0" shadow="1">
      <root>
        <mxCell id="0" />
        <mxCell id="1" parent="0" />
        <mxCell id="JtbzLgIfe00LMyJNrhl2-10" value="Organizations" style="shape=image;verticalLabelPosition=bottom;labelBackgroundColor=#ffffff;verticalAlign=top;aspect=fixed;imageAspect=0;image=data:image/svg+xml,PHN2ZyB4bWxuczpjYz0iaHR0cDovL2NyZWF0aXZlY29tbW9ucy5vcmcvbnMjIiB4bWxuczpkYz0iaHR0cDovL3B1cmwub3JnL2RjL2VsZW1lbnRzLzEuMS8iIHhtbG5zOmlua3NjYXBlPSJodHRwOi8vd3d3Lmlua3NjYXBlLm9yZy9uYW1lc3BhY2VzL2lua3NjYXBlIiB4bWxuczpyZGY9Imh0dHA6Ly93d3cudzMub3JnLzE5OTkvMDIvMjItcmRmLXN5bnRheC1ucyMiIHhtbG5zOnNvZGlwb2RpPSJodHRwOi8vc29kaXBvZGkuc291cmNlZm9yZ2UubmV0L0RURC9zb2RpcG9kaS0wLmR0ZCIgeG1sbnM6c3ZnPSJodHRwOi8vd3d3LnczLm9yZy8yMDAwL3N2ZyIgeG1sbnM9Imh0dHA6Ly93d3cudzMub3JnLzIwMDAvc3ZnIiB4bWxuczp4bGluaz0iaHR0cDovL3d3dy53My5vcmcvMTk5OS94bGluayIgdmVyc2lvbj0iMS4xIiBpZD0ic3ZnMTAzMTA4IiBpbmtzY2FwZTp2ZXJzaW9uPSIwLjkyLjMgKDI0MDU1NDYsIDIwMTgtMDMtMTEpIiBzb2RpcG9kaTpkb2NuYW1lPSJwb3N0Z3Jlc3FsXzEuc3ZnIiB4PSIwcHgiIHk9IjBweCIgdmlld0JveD0iMCAwIDUyLjg4IDYwLjA3IiBzdHlsZT0iZW5hYmxlLWJhY2tncm91bmQ6bmV3IDAgMCA1Mi44OCA2MC4wNzsiIHhtbDpzcGFjZT0icHJlc2VydmUiPiYjeGE7PHNvZGlwb2RpOm5hbWVkdmlldyBib3JkZXJjb2xvcj0iIzY2NjY2NiIgYm9yZGVyb3BhY2l0eT0iMSIgZml0LW1hcmdpbi1ib3R0b209IjAiIGZpdC1tYXJnaW4tbGVmdD0iMCIgZml0LW1hcmdpbi1yaWdodD0iMCIgZml0LW1hcmdpbi10b3A9IjAiIGdyaWR0b2xlcmFuY2U9IjEwIiBndWlkZXRvbGVyYW5jZT0iMTAiIGlkPSJuYW1lZHZpZXcxMDMxMTAiIGlua3NjYXBlOmN1cnJlbnQtbGF5ZXI9InN2ZzEwMzEwOCIgaW5rc2NhcGU6Y3g9IjM1LjI1IiBpbmtzY2FwZTpjeT0iNDAuMDQ1MTk5IiBpbmtzY2FwZTpwYWdlb3BhY2l0eT0iMCIgaW5rc2NhcGU6cGFnZXNoYWRvdz0iMiIgaW5rc2NhcGU6d2luZG93LWhlaWdodD0iMTAxNyIgaW5rc2NhcGU6d2luZG93LW1heGltaXplZD0iMSIgaW5rc2NhcGU6d2luZG93LXdpZHRoPSIxOTIwIiBpbmtzY2FwZTp3aW5kb3cteD0iLTgiIGlua3NjYXBlOndpbmRvdy15PSItOCIgaW5rc2NhcGU6em9vbT0iMTAuODI0NDc2IiBvYmplY3R0b2xlcmFuY2U9IjEwIiBwYWdlY29sb3I9IiNmZmZmZmYiIHNob3dncmlkPSJmYWxzZSI+JiN4YTsJPC9zb2RpcG9kaTpuYW1lZHZpZXc+JiN4YTs8ZyBpZD0iZzEwMzEwNiI+JiN4YTsJPHRpdGxlIGlkPSJ0aXRsZTEwMjk2OSI+UGFnZS0xPC90aXRsZT4mI3hhOwk8ZyBpZD0iZ3JvdXAzNzIyLTEiPiYjeGE7CQk8dGl0bGUgaWQ9InRpdGxlMTAyOTcxIj5Qb3N0Z3JlU1FMICMxPC90aXRsZT4mI3hhOwkJPGcgaWQ9InNoYXBlMzcyMy0yIj4mI3hhOwkJCTx0aXRsZSBpZD0idGl0bGUxMDI5NzMiPkRhdGFiYXNlICMyPC90aXRsZT4mI3hhOwkJCTxwYXRoIGlkPSJwYXRoMTAyOTc1IiBpbmtzY2FwZTpjb25uZWN0b3ItY3VydmF0dXJlPSIwIiBzdHlsZT0iZmlsbDojM0Y1NzY1OyIgZD0iTTI2LjcxLDBjMTQuNjQsMCwyNi4xNywzLjkzLDI2LjE3LDguMzEgICAgIGMwLDQzLjU0LDAsNDMuNTQsMCw0My41NGMwLDQuODMtMTEuNTMsOC4yMi0yNi4xNyw4LjIyQzEyLjE1LDYwLjA3LDAsNTYuNjgsMCw1MS44NUMwLDguMzEsMCw4LjMxLDAsOC4zMSAgICAgQzAsMy45MywxMi4xNSwwLDI2LjcxLDB6IE0yNi43MSwxNC4yMWMxMi41OSwwLDIyLjY4LTIuOTUsMjIuNjgtNS45YzAtMi44Ni0xMC4wOS01LjM2LTIyLjY4LTUuMzZjLTEyLjYsMC0yMi42LDIuNS0yMi42LDUuMzYgICAgIEM0LjExLDExLjI2LDE0LjExLDE0LjIxLDI2LjcxLDE0LjIxeiIvPiYjeGE7CQk8L2c+JiN4YTsJCTxnIGlkPSJncm91cDM3MjQtNCIgdHJhbnNmb3JtPSJ0cmFuc2xhdGUoOS44NDcyNCwtNS40NTA1MykiPiYjeGE7CQkJPHRpdGxlIGlkPSJ0aXRsZTEwMjk3OCI+U2hlZXQuMzcyNDwvdGl0bGU+JiN4YTsJCQk8ZyBpZD0ic2hhcGUzNzI1LTUiIHRyYW5zZm9ybT0idHJhbnNsYXRlKDE1LjQ5NikiPiYjeGE7CQkJCTx0aXRsZSBpZD0idGl0bGUxMDI5ODAiPnBhdGgyNDY2LTU8L3RpdGxlPiYjeGE7CQkJCTxwYXRoIGlkPSJwYXRoMTAyOTgyIiBpbmtzY2FwZTpjb25uZWN0b3ItY3VydmF0dXJlPSIwIiBzdHlsZT0iZmlsbDpub25lOyIgZD0iTTAuMTEsNDkuMzFDMCw1My4zOCwwLjMsNTYuNjEsMC42OSw1Ny42ICAgICAgYzAuNCwxLDEuNzIsMi40Nyw0LjY1LDEuODRjMi40NS0wLjUyLDMuNTctMS41NCwzLjk2LTMuNzhjMC4yOC0xLjY1LDAuNjgtNS4wNiwwLjc1LTZMMC4xMSw0OS4zMXoiLz4mI3hhOwkJCQkmI3hhOwkJCQkJPHBhdGggaWQ9InBhdGgxMDI5ODQiIGlua3NjYXBlOmNvbm5lY3Rvci1jdXJ2YXR1cmU9IjAiIHN0eWxlPSJmaWxsOm5vbmU7c3Ryb2tlOiMzRjU3NjU7c3Ryb2tlLWxpbmVjYXA6cm91bmQ7c3Ryb2tlLWxpbmVqb2luOnJvdW5kO3N0cm9rZS1taXRlcmxpbWl0OjM7IiBkPSIgICAgICBNMC4xMSw0OS4zMUMwLDUzLjM4LDAuMyw1Ni42MSwwLjY5LDU3LjZjMC40LDEsMS43MiwyLjQ3LDQuNjUsMS44NGMyLjQ1LTAuNTIsMy41Ny0xLjU0LDMuOTYtMy43OGMwLjI4LTEuNjUsMC42OC01LjA2LDAuNzUtNiIvPiYjeGE7CQkJPC9nPiYjeGE7CQkJPGcgaWQ9InNoYXBlMzcyNi04IiB0cmFuc2Zvcm09InRyYW5zbGF0ZSgwLC00Ljg1MzQ2KSI+JiN4YTsJCQkJPHRpdGxlIGlkPSJ0aXRsZTEwMjk4NyI+cGF0aDI0NjgtMDwvdGl0bGU+JiN4YTsJCQkJPHBhdGggaWQ9InBhdGgxMDI5ODkiIGlua3NjYXBlOmNvbm5lY3Rvci1jdXJ2YXR1cmU9IjAiIHN0eWxlPSJmaWxsOm5vbmU7IiBkPSJNMTMuNSwzMy4zYzAsMC0xMy41LTUuNDItMTIuODgsNi45MSAgICAgIGMwLjEzLDIuNjMsMy45OSwxOS44Niw4LjMyLDE0LjY2YzIuNjItMi40NCwzLjAxLTMuNCwzLjAxLTMuNEwxMy41LDMzLjN6Ii8+JiN4YTsJCQkJJiN4YTsJCQkJCTxwYXRoIGlkPSJwYXRoMTAyOTkxIiBpbmtzY2FwZTpjb25uZWN0b3ItY3VydmF0dXJlPSIwIiBzdHlsZT0iZmlsbDpub25lO3N0cm9rZTojM0Y1NzY1O3N0cm9rZS1saW5lY2FwOnJvdW5kO3N0cm9rZS1saW5lam9pbjpyb3VuZDtzdHJva2UtbWl0ZXJsaW1pdDozOyIgZD0iICAgICAgTTEzLjUsMzMuM2MwLDAtMTMuNS01LjQyLTEyLjg4LDYuOTFjMC4xMywyLjYzLDMuOTksMTkuODYsOC4zMiwxNC42NmMyLjYyLTIuNDQsMy4wMS0zLjQsMy4wMS0zLjQiLz4mI3hhOwkJCTwvZz4mI3hhOwkJCTxnIGlkPSJzaGFwZTM3MjctMTEiIHRyYW5zZm9ybT0idHJhbnNsYXRlKDE5LjI2NjgsLTEzLjA3NjgpIj4mI3hhOwkJCQk8dGl0bGUgaWQ9InRpdGxlMTAyOTk0Ij5wYXRoMjQ3MC03PC90aXRsZT4mI3hhOwkJCQk8cGF0aCBpZD0icGF0aDEwMjk5NiIgaW5rc2NhcGU6Y29ubmVjdG9yLWN1cnZhdHVyZT0iMCIgc3R5bGU9ImZpbGw6IzNGNTc2NTsiIGQ9Ik0wLjQ2LDQwLjU0QzAsNDAuNjgsNy44NCwzNy42NywxMi4zLDQzLjM2ICAgICAgYzEuNTcsMi4wMi0wLjI1LDEwLjI0LTQuNjIsMTYuNzFMMC40Niw0MC41NHoiLz4mI3hhOwkJCQkmI3hhOwkJCQkJPHBhdGggaWQ9InBhdGgxMDI5OTgiIGlua3NjYXBlOmNvbm5lY3Rvci1jdXJ2YXR1cmU9IjAiIHN0eWxlPSJmaWxsOm5vbmU7c3Ryb2tlOiMzRjU3NjU7c3Ryb2tlLWxpbmVjYXA6cm91bmQ7c3Ryb2tlLWxpbmVqb2luOnJvdW5kO3N0cm9rZS1taXRlcmxpbWl0OjM7IiBkPSIgICAgICBNMC40Niw0MC41NEMwLDQwLjY4LDcuODQsMzcuNjcsMTIuMyw0My4zNmMxLjU3LDIuMDItMC4yNSwxMC4yNC00LjYyLDE2LjcxIi8+JiN4YTsJCQk8L2c+JiN4YTsJCQk8ZyBpZD0ic2hhcGUzNzI4LTE0IiB0cmFuc2Zvcm09InRyYW5zbGF0ZSg4LjkxMTY5LC05Ljc0ODU4KSI+JiN4YTsJCQkJPHRpdGxlIGlkPSJ0aXRsZTEwMzAwMSI+cGF0aDI0NzItMjwvdGl0bGU+JiN4YTsJCQkJPHBhdGggaWQ9InBhdGgxMDMwMDMiIGlua3NjYXBlOmNvbm5lY3Rvci1jdXJ2YXR1cmU9IjAiIHN0eWxlPSJmaWxsOm5vbmU7IiBkPSJNMTguMDQsNTUuNDFjMCwwLDAuMjgsMS40LDQuNDIsMC41NSAgICAgIGMxLjgxLTAuMzcsMC43MiwyLjM4LTEuMTIsMy4yM2MtMS41MSwwLjctNC44OCwwLjg4LTQuOTQtMC4wOEMxNi4yNiw1Ni42MSwxOC4xOCw1Ni4wNCwxOC4wNCw1NS40MSAgICAgIGMtMC4xMy0wLjU2LTAuOTgsMC4yMi0xLjU1LTEuMTZjLTAuNS0xLjItNi44MS0xMC40MiwxLjc1LTkuMDVjMC4zMS0wLjA3LTIuMjMtOC4xNC0xMC4yNC04LjI3Yy04LTAuMTMtNy43NCw5Ljg0LTcuNzQsOS44NCAgICAgIEwxOC4wNCw1NS40MXoiLz4mI3hhOwkJCQkmI3hhOwkJCQkJPHBhdGggaWQ9InBhdGgxMDMwMDUiIGlua3NjYXBlOmNvbm5lY3Rvci1jdXJ2YXR1cmU9IjAiIHN0eWxlPSJmaWxsOm5vbmU7c3Ryb2tlOiMzRjU3NjU7c3Ryb2tlLWxpbmVjYXA6cm91bmQ7c3Ryb2tlLWxpbmVqb2luOnJvdW5kO3N0cm9rZS1taXRlcmxpbWl0OjM7IiBkPSIgICAgICBNMTguMDQsNTUuNDFjMCwwLDAuMjgsMS40LDQuNDIsMC41NWMxLjgxLTAuMzcsMC43MiwyLjM4LTEuMTIsMy4yM2MtMS41MSwwLjctNC44OCwwLjg4LTQuOTQtMC4wOCAgICAgIEMxNi4yNiw1Ni42MSwxOC4xOCw1Ni4wNCwxOC4wNCw1NS40MWMtMC4xMy0wLjU2LTAuOTgsMC4yMi0xLjU1LTEuMTZjLTAuNS0xLjItNi44MS0xMC40MiwxLjc1LTkuMDUgICAgICBjMC4zMS0wLjA3LTIuMjMtOC4xNC0xMC4yNC04LjI3Yy04LTAuMTMtNy43NCw5Ljg0LTcuNzQsOS44NCIvPiYjeGE7CQkJPC9nPiYjeGE7CQkJPGcgaWQ9InNoYXBlMzcyOS0xNyIgdHJhbnNmb3JtPSJ0cmFuc2xhdGUoOC41NTcwNCwtOC4yMzMxNykiPiYjeGE7CQkJCTx0aXRsZSBpZD0idGl0bGUxMDMwMDgiPnBhdGgyNDc0LTc8L3RpdGxlPiYjeGE7CQkJCSYjeGE7CQkJCQk8cGF0aCBpZD0icGF0aDEwMzAxMCIgaW5rc2NhcGU6Y29ubmVjdG9yLWN1cnZhdHVyZT0iMCIgc3R5bGU9ImZpbGw6bm9uZTtzdHJva2U6IzNGNTc2NTtzdHJva2UtbGluZWNhcDpyb3VuZDtzdHJva2UtbGluZWpvaW46cm91bmQ7c3Ryb2tlLW1pdGVybGltaXQ6MzsiIGQ9IiAgICAgIE01LjI3LDU2LjA4Yy0xLjExLDEuMjUtMC43OCwxLjQ3LTMuMDEsMS45M0MwLDU4LjQ3LDEuMzMsNTguOTMsMi4xOSw1OS4xOGMxLjg2LDAuMzQsMy4zMiwwLjg5LDUuMTItMS4wMiAgICAgIGMwLjUtMC43LTAuMDEtMi4xMi0wLjY5LTIuNDFDNi4yOSw1NS42Miw1Ljg0LDU1LjQ0LDUuMjcsNTYuMDh6Ii8+JiN4YTsJCQk8L2c+JiN4YTsJCQk8ZyBpZD0ic2hhcGUzNzMwLTE5IiB0cmFuc2Zvcm09InRyYW5zbGF0ZSg4LjY2MjMyLC0xMi4yNDU1KSI+JiN4YTsJCQkJPHRpdGxlIGlkPSJ0aXRsZTEwMzAxMyI+cGF0aDI0NzYtMTwvdGl0bGU+JiN4YTsJCQkJPHBhdGggaWQ9InBhdGgxMDMwMTUiIGlua3NjYXBlOmNvbm5lY3Rvci1jdXJ2YXR1cmU9IjAiIHN0eWxlPSJmaWxsOm5vbmU7IiBkPSJNNS4xLDYwLjA3Yy0wLjEyLTAuNzMsMC4yNC0xLjYsMC42MS0yLjYyICAgICAgYzAuNTctMS41MywxLjg5LTMuMDYsMC44NC03LjkyYy0wLjc5LTMuNjItNi4wMy0wLjc1LTYuMDQtMC4yNmMwLDAuNDksMC4yNCwyLjQ5LTAuMDksNC44MWMtMC40MiwzLjAzLDEuOTMsNS42LDQuNjUsNS4zNCAgICAgIEw1LjEsNjAuMDd6Ii8+JiN4YTsJCQkJJiN4YTsJCQkJCTxwYXRoIGlkPSJwYXRoMTAzMDE3IiBpbmtzY2FwZTpjb25uZWN0b3ItY3VydmF0dXJlPSIwIiBzdHlsZT0iZmlsbDpub25lO3N0cm9rZTojMDAwMDAwO3N0cm9rZS1saW5lY2FwOnJvdW5kO3N0cm9rZS1saW5lam9pbjpyb3VuZDtzdHJva2UtbWl0ZXJsaW1pdDozOyIgZD0iICAgICAgTTUuMSw2MC4wN2MtMC4xMi0wLjczLDAuMjQtMS42LDAuNjEtMi42MmMwLjU3LTEuNTMsMS44OS0zLjA2LDAuODQtNy45MmMtMC43OS0zLjYyLTYuMDMtMC43NS02LjA0LTAuMjYgICAgICBjMCwwLjQ5LDAuMjQsMi40OS0wLjA5LDQuODFjLTAuNDIsMy4wMywxLjkzLDUuNiw0LjY1LDUuMzQiLz4mI3hhOwkJCTwvZz4mI3hhOwkJCTxnIGlkPSJzaGFwZTM3MzEtMjIiIHRyYW5zZm9ybT0idHJhbnNsYXRlKDEyLjQ4NTQsLTIyLjM4OCkiPiYjeGE7CQkJCTx0aXRsZSBpZD0idGl0bGUxMDMwMjAiPnBhdGgyNDc4LTQ8L3RpdGxlPiYjeGE7CQkJCTxwYXRoIGlkPSJwYXRoMTAzMDIyIiBpbmtzY2FwZTpjb25uZWN0b3ItY3VydmF0dXJlPSIwIiBzdHlsZT0iZmlsbDpub25lO3N0cm9rZTojMDAwMDAwO3N0cm9rZS1taXRlcmxpbWl0OjM7IiBkPSJNMC4wMiw1OS4zNCAgICAgIEMwLDU5LjUxLDAuMzMsNTkuOTUsMC43Niw2MC4wMWMwLjQzLDAuMDYsMC44LTAuMjksMC44Mi0wLjQ1YzAuMDMtMC4xNy0wLjMtMC4zNi0wLjczLTAuNDJDMC40MSw1OS4wOCwwLjA1LDU5LjE3LDAuMDIsNTkuMzR6Ii8+JiN4YTsJCQk8L2c+JiN4YTsJCQk8ZyBpZD0ic2hhcGUzNzMyLTI0IiB0cmFuc2Zvcm09InRyYW5zbGF0ZSgyNC4wMjY0LC0yMi43Mjk1KSI+JiN4YTsJCQkJPHRpdGxlIGlkPSJ0aXRsZTEwMzAyNSI+cGF0aDI0ODAtODwvdGl0bGU+JiN4YTsJCQkJPHBhdGggaWQ9InBhdGgxMDMwMjciIGlua3NjYXBlOmNvbm5lY3Rvci1jdXJ2YXR1cmU9IjAiIHN0eWxlPSJmaWxsOm5vbmU7c3Ryb2tlOiMwMDAwMDA7c3Ryb2tlLW1pdGVybGltaXQ6MzsiIGQ9Ik0xLjU4LDU5LjM0ICAgICAgYzAuMDMsMC4xNy0wLjMsMC42MS0wLjc0LDAuNjdjLTAuNDMsMC4wNi0wLjc5LTAuMjktMC44Mi0wLjQ1QzAsNTkuMzksMC4zMyw1OS4yLDAuNzYsNTkuMTRTMS41Niw1OS4xNywxLjU4LDU5LjM0eiIvPiYjeGE7CQkJPC9nPiYjeGE7CQkJPGcgaWQ9InNoYXBlMzczMy0yNiIgdHJhbnNmb3JtPSJ0cmFuc2xhdGUoMjYuMjI5OCwtMTQuMzIzNSkiPiYjeGE7CQkJCTx0aXRsZSBpZD0idGl0bGUxMDMwMzAiPnBhdGgyNDgyLTQ8L3RpdGxlPiYjeGE7CQkJCTxwYXRoIGlkPSJwYXRoMTAzMDMyIiBpbmtzY2FwZTpjb25uZWN0b3ItY3VydmF0dXJlPSIwIiBzdHlsZT0iZmlsbDpub25lOyIgZD0iTTAuOTIsNDkuNzdjMC4wNywxLjMyLTAuMjgsMi4yMS0wLjMzLDMuNjEgICAgICBDMC41Miw1NS40MSwxLjU2LDU3Ljc0LDAsNjAuMDdMMC45Miw0OS43N3oiLz4mI3hhOwkJCQkmI3hhOwkJCQkJPHBhdGggaWQ9InBhdGgxMDMwMzQiIGlua3NjYXBlOmNvbm5lY3Rvci1jdXJ2YXR1cmU9IjAiIHN0eWxlPSJmaWxsOm5vbmU7c3Ryb2tlOiMwMDAwMDA7c3Ryb2tlLWxpbmVjYXA6cm91bmQ7c3Ryb2tlLWxpbmVqb2luOnJvdW5kO3N0cm9rZS1taXRlcmxpbWl0OjM7IiBkPSIgICAgICBNMC45Miw0OS43N2MwLjA3LDEuMzItMC4yOCwyLjIxLTAuMzMsMy42MUMwLjUyLDU1LjQxLDEuNTYsNTcuNzQsMCw2MC4wNyIvPiYjeGE7CQkJPC9nPiYjeGE7CQkJPGcgaWQ9InNoYXBlMzczNC0yOSIgdHJhbnNmb3JtPSJ0cmFuc2xhdGUoMTAuNjE3NiwtMTEuMzI0MSkiPiYjeGE7CQkJCTx0aXRsZSBpZD0idGl0bGUxMDMwMzciPnBhdGgxMTY3ODwvdGl0bGU+JiN4YTsJCQkJJiN4YTsJCQkJCTxwYXRoIGlkPSJwYXRoMTAzMDM5IiBpbmtzY2FwZTpjb25uZWN0b3ItY3VydmF0dXJlPSIwIiBzdHlsZT0iZmlsbDojM0Y1NzY1O3N0cm9rZTojM0Y1NzY1O3N0cm9rZS1saW5lY2FwOnNxdWFyZTtzdHJva2UtbWl0ZXJsaW1pdDozOyIgZD0iICAgICAgTTAuNTEsNTguNDhsMi41Ni0wLjA2bC0xLjEyLDEuNjVMMCw1OS45TDAuNTEsNTguNDh6Ii8+JiN4YTsJCQk8L2c+JiN4YTsJCQk8ZyBpZD0ic2hhcGUzNzM1LTMxIiB0cmFuc2Zvcm09InRyYW5zbGF0ZSgwLjk5ODM3OSwtMC44ODYwNTQpIj4mI3hhOwkJCQk8dGl0bGUgaWQ9InRpdGxlMTAzMDQyIj5wYXRoMjQ2NDwvdGl0bGU+JiN4YTsJCQkJJiN4YTsJCQkJCTxwYXRoIGlkPSJwYXRoMTAzMDQ0IiBpbmtzY2FwZTpjb25uZWN0b3ItY3VydmF0dXJlPSIwIiBzdHlsZT0iZmlsbDojM0Y1NzY1O3N0cm9rZTojRkZGRkZGO3N0cm9rZS1saW5lY2FwOnJvdW5kO3N0cm9rZS1saW5lam9pbjpyb3VuZDtzdHJva2UtbWl0ZXJsaW1pdDozOyIgZD0iICAgICAgTTI5LjU3LDQ3LjgyYy0zLjgxLDAuNzktNC4wNy0wLjUtNC4wNy0wLjVjNC4wMi01Ljk3LDUuNy0xMy41NCw0LjI1LTE1LjRjLTMuOTYtNS4wNi0xMC44MS0yLjY2LTEwLjkyLTIuNmgtMC4wNCAgICAgIGMtMC43NS0wLjE1LTEuNi0wLjI0LTIuNTQtMC4yNmMtMS43My0wLjAzLTMuMDMsMC40NS00LjAzLDEuMmMwLDAtMTIuMjItNS4wMy0xMS42NSw2LjM0YzAuMTIsMi40MiwzLjQ3LDE4LjMsNy40NiwxMy41ICAgICAgYzEuNDUtMS43NSwyLjg2LTMuMjQsMi44Ni0zLjI0YzAuNywwLjQ3LDEuNTQsMC43MSwyLjQyLDAuNjJsMC4wNy0wLjA2Yy0wLjAyLDAuMjItMC4wMSwwLjQzLDAuMDMsMC42OSAgICAgIGMtMS4wMywxLjE0LTAuNzMsMS4zNS0yLjc5LDEuNzdjLTIuMDgsMC40My0wLjg1LDEuMTktMC4wNiwxLjM5YzAuOTcsMC4yNCwzLjIxLDAuNTgsNC43Mi0xLjUzbC0wLjA2LDAuMjQgICAgICBjMC40LDAuMzIsMC42OCwyLjEsMC42NCwzLjcxYy0wLjA1LDEuNjEtMC4wOCwyLjcxLDAuMjQsMy41OGMwLjMxLDAuODYsMC42MywyLjgsMy4zMywyLjIyYzIuMjYtMC40OCwzLjQzLTEuNzMsMy41OS0zLjgzICAgICAgYzAuMTItMS40OCwwLjM4LTEuMjYsMC4zOS0yLjU5bDAuMjEtMC42M2MwLjI1LTIuMDIsMC4wNC0yLjY3LDEuNDMtMi4zNmwwLjM0LDAuMDNjMS4wMiwwLjA0LDIuMzYtMC4xNywzLjE1LTAuNTMgICAgICBDMzAuMjMsNDguNzksMzEuMjQsNDcuNDgsMjkuNTcsNDcuODJ6Ii8+JiN4YTsJCQk8L2c+JiN4YTsJCQk8ZyBpZD0ic2hhcGUzNzM2LTMzIiB0cmFuc2Zvcm09InRyYW5zbGF0ZSgxNi4zMzY1LC0wLjgzMzg5OSkiPiYjeGE7CQkJCTx0aXRsZSBpZD0idGl0bGUxMDMwNDciPnBhdGgyNDY2PC90aXRsZT4mI3hhOwkJCQk8cGF0aCBpZD0icGF0aDEwMzA0OSIgaW5rc2NhcGU6Y29ubmVjdG9yLWN1cnZhdHVyZT0iMCIgc3R5bGU9ImZpbGw6IzNGNTc2NTsiIGQ9Ik0wLjEsNDguOTNjLTAuMSwzLjc1LDAuMDMsNy41MiwwLjQsOC40NCAgICAgIHMxLjE1LDIuNywzLjg1LDIuMTJjMi4yNi0wLjQ4LDMuMDgtMS40MiwzLjQ0LTMuNDhjMC4yNi0xLjUyLDAuNzctNS43NSwwLjgzLTYuNjFMMC4xLDQ4LjkzeiIvPiYjeGE7CQkJCSYjeGE7CQkJCQk8cGF0aCBpZD0icGF0aDEwMzA1MSIgaW5rc2NhcGU6Y29ubmVjdG9yLWN1cnZhdHVyZT0iMCIgc3R5bGU9ImZpbGw6bm9uZTtzdHJva2U6I0ZGRkZGRjtzdHJva2UtbGluZWNhcDpyb3VuZDtzdHJva2UtbGluZWpvaW46cm91bmQ7c3Ryb2tlLW1pdGVybGltaXQ6MzsiIGQ9IiAgICAgIE0wLjEsNDguOTNjLTAuMSwzLjc1LDAuMDMsNy41MiwwLjQsOC40NHMxLjE1LDIuNywzLjg1LDIuMTJjMi4yNi0wLjQ4LDMuMDgtMS40MiwzLjQ0LTMuNDhjMC4yNi0xLjUyLDAuNzctNS43NSwwLjgzLTYuNjEiLz4mI3hhOwkJCTwvZz4mI3hhOwkJCTxnIGlkPSJzaGFwZTM3MzctMzYiIHRyYW5zZm9ybT0idHJhbnNsYXRlKDAuOTcxMjA0LC02LjEwNzUzKSI+JiN4YTsJCQkJPHRpdGxlIGlkPSJ0aXRsZTEwMzA1NCI+cGF0aDI0Njg8L3RpdGxlPiYjeGE7CQkJCTxwYXRoIGlkPSJwYXRoMTAzMDU2IiBpbmtzY2FwZTpjb25uZWN0b3ItY3VydmF0dXJlPSIwIiBzdHlsZT0iZmlsbDojM0Y1NzY1OyIgZD0iTTEyLjIzLDM1LjRjMCwwLTEyLjIzLTUtMTEuNjYsNi4zNyAgICAgIGMwLjEyLDIuNDIsMy40NywxOC4zLDcuNDYsMTMuNWMxLjQ1LTEuNzUsMi43Ny0zLjEzLDIuNzctMy4xM0wxMi4yMywzNS40eiIvPiYjeGE7CQkJCSYjeGE7CQkJCQk8cGF0aCBpZD0icGF0aDEwMzA1OCIgaW5rc2NhcGU6Y29ubmVjdG9yLWN1cnZhdHVyZT0iMCIgc3R5bGU9ImZpbGw6bm9uZTtzdHJva2U6I0ZGRkZGRjtzdHJva2UtbGluZWNhcDpyb3VuZDtzdHJva2UtbGluZWpvaW46cm91bmQ7c3Ryb2tlLW1pdGVybGltaXQ6MzsiIGQ9IiAgICAgIE0xMi4yMywzNS40YzAsMC0xMi4yMy01LTExLjY2LDYuMzdjMC4xMiwyLjQyLDMuNDcsMTguMyw3LjQ2LDEzLjVjMS40NS0xLjc1LDIuNzctMy4xMywyLjc3LTMuMTMiLz4mI3hhOwkJCTwvZz4mI3hhOwkJCTxnIGlkPSJzaGFwZTM3MzgtMzkiIHRyYW5zZm9ybT0idHJhbnNsYXRlKDE5LjM4NjcsLTEzLjY4NjIpIj4mI3hhOwkJCQk8dGl0bGUgaWQ9InRpdGxlMTAzMDYxIj5wYXRoMjQ3MDwvdGl0bGU+JiN4YTsJCQkJPHBhdGggaWQ9InBhdGgxMDMwNjMiIGlua3NjYXBlOmNvbm5lY3Rvci1jdXJ2YXR1cmU9IjAiIHN0eWxlPSJmaWxsOiMzRjU3NjU7IiBkPSJNMC40Miw0Mi4wN0MwLDQyLjIsNy4yMywzOS40MywxMS4zNCw0NC42NyAgICAgIGMxLjQ1LDEuODYtMC4yNCw5LjQzLTQuMjYsMTUuNEwwLjQyLDQyLjA3eiIvPiYjeGE7CQkJCSYjeGE7CQkJCQk8cGF0aCBpZD0icGF0aDEwMzA2NSIgaW5rc2NhcGU6Y29ubmVjdG9yLWN1cnZhdHVyZT0iMCIgc3R5bGU9ImZpbGw6bm9uZTtzdHJva2U6I0ZGRkZGRjtzdHJva2UtbGluZWNhcDpyb3VuZDtzdHJva2UtbGluZWpvaW46cm91bmQ7c3Ryb2tlLW1pdGVybGltaXQ6MzsiIGQ9IiAgICAgIE0wLjQyLDQyLjA3QzAsNDIuMiw3LjIzLDM5LjQzLDExLjM0LDQ0LjY3YzEuNDUsMS44Ni0wLjI0LDkuNDMtNC4yNiwxNS40Ii8+JiN4YTsJCQk8L2c+JiN4YTsJCQk8ZyBpZD0ic2hhcGUzNzM5LTQyIiB0cmFuc2Zvcm09InRyYW5zbGF0ZSg5Ljg0MzI3LC0xMC42MTg5KSI+JiN4YTsJCQkJPHRpdGxlIGlkPSJ0aXRsZTEwMzA2OCI+cGF0aDI0NzI8L3RpdGxlPiYjeGE7CQkJCTxwYXRoIGlkPSJwYXRoMTAzMDcwIiBpbmtzY2FwZTpjb25uZWN0b3ItY3VydmF0dXJlPSIwIiBzdHlsZT0iZmlsbDojM0Y1NzY1OyIgZD0iTTE2LjYzLDU3YzAsMCwwLjI2LDEuMjksNC4wNywwLjUxICAgICAgYzEuNjctMC4zNSwwLjY2LDAuOTctMS4wMywxLjc1Yy0xLjM5LDAuNjUtNC41LDAuODEtNC41Ni0wLjA4QzE0Ljk4LDU2Ljg4LDE2Ljc1LDU3LjU4LDE2LjYzLDU3ICAgICAgYy0wLjEyLTAuNTEtMC45MS0xLjAyLTEuNDMtMi4yOWMtMC40Ni0xLjExLTYuMjctOS42MSwxLjYxLTguMzVjMC4yOS0wLjA2LTIuMDYtNy40OS05LjQ0LTcuNjFDMCwzOC42MiwwLjI0LDQ3LjgxLDAuMjQsNDcuODEgICAgICBMMTYuNjMsNTd6Ii8+JiN4YTsJCQkJJiN4YTsJCQkJCTxwYXRoIGlkPSJwYXRoMTAzMDcyIiBpbmtzY2FwZTpjb25uZWN0b3ItY3VydmF0dXJlPSIwIiBzdHlsZT0iZmlsbDpub25lO3N0cm9rZTojRkZGRkZGO3N0cm9rZS1saW5lY2FwOnJvdW5kO3N0cm9rZS1saW5lam9pbjpyb3VuZDtzdHJva2UtbWl0ZXJsaW1pdDozOyIgZD0iICAgICAgTTE2LjYzLDU3YzAsMCwwLjI2LDEuMjksNC4wNywwLjUxYzEuNjctMC4zNSwwLjY2LDAuOTctMS4wMywxLjc1Yy0xLjM5LDAuNjUtNC41LDAuODEtNC41Ni0wLjA4ICAgICAgQzE0Ljk4LDU2Ljg4LDE2Ljc1LDU3LjU4LDE2LjYzLDU3Yy0wLjEyLTAuNTEtMC45MS0xLjAyLTEuNDMtMi4yOWMtMC40Ni0xLjExLTYuMjctOS42MSwxLjYxLTguMzUgICAgICBjMC4yOS0wLjA2LTIuMDYtNy40OS05LjQ0LTcuNjFDMCwzOC42MiwwLjI0LDQ3LjgxLDAuMjQsNDcuODEiLz4mI3hhOwkJCTwvZz4mI3hhOwkJCTxnIGlkPSJzaGFwZTM3NDAtNDUiIHRyYW5zZm9ybT0idHJhbnNsYXRlKDkuNTE2NDIsLTkuMTUxNSkiPiYjeGE7CQkJCTx0aXRsZSBpZD0idGl0bGUxMDMwNzUiPnBhdGgyNDc0PC90aXRsZT4mI3hhOwkJCQkmI3hhOwkJCQkJPHBhdGggaWQ9InBhdGgxMDMwNzciIGlua3NjYXBlOmNvbm5lY3Rvci1jdXJ2YXR1cmU9IjAiIHN0eWxlPSJmaWxsOiMzRjU3NjU7c3Ryb2tlOiNGRkZGRkY7c3Ryb2tlLWxpbmVjYXA6cm91bmQ7c3Ryb2tlLWxpbmVqb2luOnJvdW5kO3N0cm9rZS1taXRlcmxpbWl0OjM7IiBkPSIgICAgICBNNC44Niw1Ni4zMmMtMS4wMywxLjE1LTAuNzMsMS4zNS0yLjc4LDEuNzhDMCw1OC41MywxLjIyLDU5LjI5LDIuMDIsNTkuNDljMC45NywwLjI0LDMuMiwwLjU4LDQuNzEtMS41MyAgICAgIGMwLjQ2LTAuNjUsMC0xLjY4LTAuNjMtMS45NEM1Ljc5LDU1Ljg5LDUuMzksNTUuNzQsNC44Niw1Ni4zMnoiLz4mI3hhOwkJCTwvZz4mI3hhOwkJCTxnIGlkPSJzaGFwZTM3NDEtNDciIHRyYW5zZm9ybT0idHJhbnNsYXRlKDkuNjEzNCwtMTIuOTIwMSkiPiYjeGE7CQkJCTx0aXRsZSBpZD0idGl0bGUxMDMwODAiPnBhdGgyNDc2PC90aXRsZT4mI3hhOwkJCQk8cGF0aCBpZD0icGF0aDEwMzA4MiIgaW5rc2NhcGU6Y29ubmVjdG9yLWN1cnZhdHVyZT0iMCIgc3R5bGU9ImZpbGw6IzNGNTc2NTsiIGQ9Ik00LjcsNjAuMDdjLTAuMTEtMC42NywwLjIyLTEuNDgsMC41Ny0yLjQyICAgICAgYzAuNTItMS40MSwxLjczLTIuODIsMC43Ni03LjI5Yy0wLjcyLTMuMzQtNS41Ni0wLjctNS41Ni0wLjI0YzAsMC40NSwwLjIyLDIuMjktMC4wOCw0LjQzQzAsNTcuMzQsMi4xNyw1OS43MSw0LjY3LDU5LjQ3ICAgICAgTDQuNyw2MC4wN3oiLz4mI3hhOwkJCQkmI3hhOwkJCQkJPHBhdGggaWQ9InBhdGgxMDMwODQiIGlua3NjYXBlOmNvbm5lY3Rvci1jdXJ2YXR1cmU9IjAiIHN0eWxlPSJmaWxsOm5vbmU7c3Ryb2tlOiNGRkZGRkY7c3Ryb2tlLWxpbmVjYXA6cm91bmQ7c3Ryb2tlLWxpbmVqb2luOnJvdW5kO3N0cm9rZS1taXRlcmxpbWl0OjM7IiBkPSIgICAgICBNNC43LDYwLjA3Yy0wLjExLTAuNjcsMC4yMi0xLjQ4LDAuNTctMi40MmMwLjUyLTEuNDEsMS43My0yLjgyLDAuNzYtNy4yOWMtMC43Mi0zLjM0LTUuNTYtMC43LTUuNTYtMC4yNCAgICAgIGMwLDAuNDUsMC4yMiwyLjI5LTAuMDgsNC40M0MwLDU3LjM0LDIuMTcsNTkuNzEsNC42Nyw1OS40NyIvPiYjeGE7CQkJPC9nPiYjeGE7CQkJPGcgaWQ9InNoYXBlMzc0Mi01MCIgdHJhbnNmb3JtPSJ0cmFuc2xhdGUoMTMuMTM2OCwtMjIuMjY3NikiPiYjeGE7CQkJCTx0aXRsZSBpZD0idGl0bGUxMDMwODciPnBhdGgyNDc4PC90aXRsZT4mI3hhOwkJCQk8cGF0aCBpZD0icGF0aDEwMzA4OSIgaW5rc2NhcGU6Y29ubmVjdG9yLWN1cnZhdHVyZT0iMCIgc3R5bGU9ImZpbGw6I0ZGRkZGRjtzdHJva2U6I0ZGRkZGRjtzdHJva2UtbWl0ZXJsaW1pdDozOyIgZD0iICAgICAgTTAuMDIsNTkuNEMwLDU5LjU1LDAuMyw1OS45NiwwLjcsNjAuMDJjMC40LDAuMDUsMC43NC0wLjI3LDAuNzYtMC40MmMwLjAyLTAuMTYtMC4yOC0wLjMzLTAuNjgtMC4zOCAgICAgIEMwLjM4LDU5LjE2LDAuMDQsNTkuMjQsMC4wMiw1OS40eiIvPiYjeGE7CQkJPC9nPiYjeGE7CQkJPGcgaWQ9InNoYXBlMzc0My01MiIgdHJhbnNmb3JtPSJ0cmFuc2xhdGUoMjMuNzczMywtMjIuNTgyNCkiPiYjeGE7CQkJCTx0aXRsZSBpZD0idGl0bGUxMDMwOTIiPnBhdGgyNDgwPC90aXRsZT4mI3hhOwkJCQk8cGF0aCBpZD0icGF0aDEwMzA5NCIgaW5rc2NhcGU6Y29ubmVjdG9yLWN1cnZhdHVyZT0iMCIgc3R5bGU9ImZpbGw6I0ZGRkZGRjtzdHJva2U6I0ZGRkZGRjtzdHJva2UtbWl0ZXJsaW1pdDozOyIgZD0iICAgICAgTTEuNDYsNTkuNGMwLjAyLDAuMTUtMC4yOCwwLjU2LTAuNjgsMC42MmMtMC40LDAuMDUtMC43NC0wLjI3LTAuNzYtMC40MkMwLDU5LjQ0LDAuMyw1OS4yNywwLjcsNTkuMjIgICAgICBDMS4xLDU5LjE2LDEuNDQsNTkuMjQsMS40Niw1OS40eiIvPiYjeGE7CQkJPC9nPiYjeGE7CQkJPGcgaWQ9InNoYXBlMzc0NC01NCIgdHJhbnNmb3JtPSJ0cmFuc2xhdGUoMjUuODAzOSwtMTQuODM1MikiPiYjeGE7CQkJCTx0aXRsZSBpZD0idGl0bGUxMDMwOTciPnBhdGgyNDgyPC90aXRsZT4mI3hhOwkJCQk8cGF0aCBpZD0icGF0aDEwMzA5OSIgaW5rc2NhcGU6Y29ubmVjdG9yLWN1cnZhdHVyZT0iMCIgc3R5bGU9ImZpbGw6IzMxNjE5MjsiIGQ9Ik0wLjg1LDUwLjU4YzAuMDYsMS4yMS0wLjI2LDIuMDQtMC4zMSwzLjMzICAgICAgYy0wLjA2LDEuODcsMC45LDQuMDEtMC41NCw2LjE2TDAuODUsNTAuNTh6Ii8+JiN4YTsJCQkJJiN4YTsJCQkJCTxwYXRoIGlkPSJwYXRoMTAzMTAxIiBpbmtzY2FwZTpjb25uZWN0b3ItY3VydmF0dXJlPSIwIiBzdHlsZT0iZmlsbDpub25lO3N0cm9rZTojRkZGRkZGO3N0cm9rZS1saW5lY2FwOnJvdW5kO3N0cm9rZS1saW5lam9pbjpyb3VuZDtzdHJva2UtbWl0ZXJsaW1pdDozOyIgZD0iICAgICAgTTAuODUsNTAuNThjMC4wNiwxLjIxLTAuMjYsMi4wNC0wLjMxLDMuMzNjLTAuMDYsMS44NywwLjksNC4wMS0wLjU0LDYuMTYiLz4mI3hhOwkJCTwvZz4mI3hhOwkJPC9nPiYjeGE7CTwvZz4mI3hhOzwvZz4mI3hhOzwvc3ZnPg==;" vertex="1" parent="1">
          <mxGeometry x="330" y="103.02" width="41.5" height="46.98" as="geometry" />
        </mxCell>
        <mxCell id="JtbzLgIfe00LMyJNrhl2-11" value="Naboo server" style="shape=image;verticalLabelPosition=bottom;labelBackgroundColor=#ffffff;verticalAlign=top;aspect=fixed;imageAspect=0;image=data:image/svg+xml,PHN2ZyB4bWxuczpjYz0iaHR0cDovL2NyZWF0aXZlY29tbW9ucy5vcmcvbnMjIiB4bWxuczpkYz0iaHR0cDovL3B1cmwub3JnL2RjL2VsZW1lbnRzLzEuMS8iIHhtbG5zOmlua3NjYXBlPSJodHRwOi8vd3d3Lmlua3NjYXBlLm9yZy9uYW1lc3BhY2VzL2lua3NjYXBlIiB4bWxuczpyZGY9Imh0dHA6Ly93d3cudzMub3JnLzE5OTkvMDIvMjItcmRmLXN5bnRheC1ucyMiIHhtbG5zOnNvZGlwb2RpPSJodHRwOi8vc29kaXBvZGkuc291cmNlZm9yZ2UubmV0L0RURC9zb2RpcG9kaS0wLmR0ZCIgeG1sbnM6c3ZnPSJodHRwOi8vd3d3LnczLm9yZy8yMDAwL3N2ZyIgeG1sbnM9Imh0dHA6Ly93d3cudzMub3JnLzIwMDAvc3ZnIiB4bWxuczp4bGluaz0iaHR0cDovL3d3dy53My5vcmcvMTk5OS94bGluayIgdmVyc2lvbj0iMS4xIiBpZD0ic3ZnMTU4NzIiIGlua3NjYXBlOnZlcnNpb249IjAuOTIuMyAoMjQwNTU0NiwgMjAxOC0wMy0xMSkiIHNvZGlwb2RpOmRvY25hbWU9IndlYl9zZXJ2ZXIuc3ZnIiB4PSIwcHgiIHk9IjBweCIgdmlld0JveD0iMCAwIDU4Ljc3IDY5Ljc1IiBzdHlsZT0iZW5hYmxlLWJhY2tncm91bmQ6bmV3IDAgMCA1OC43NyA2OS43NTsiIHhtbDpzcGFjZT0icHJlc2VydmUiPiYjeGE7PHNvZGlwb2RpOm5hbWVkdmlldyBib3JkZXJjb2xvcj0iIzY2NjY2NiIgYm9yZGVyb3BhY2l0eT0iMSIgZml0LW1hcmdpbi1ib3R0b209IjAiIGZpdC1tYXJnaW4tbGVmdD0iMCIgZml0LW1hcmdpbi1yaWdodD0iMCIgZml0LW1hcmdpbi10b3A9IjAiIGdyaWR0b2xlcmFuY2U9IjEwIiBndWlkZXRvbGVyYW5jZT0iMTAiIGlkPSJuYW1lZHZpZXcxNTg3NCIgaW5rc2NhcGU6Y3VycmVudC1sYXllcj0ic3ZnMTU4NzIiIGlua3NjYXBlOmN4PSIzOC45NTg2NTUiIGlua3NjYXBlOmN5PSI0Ni40OTk5ODUiIGlua3NjYXBlOnBhZ2VvcGFjaXR5PSIwIiBpbmtzY2FwZTpwYWdlc2hhZG93PSIyIiBpbmtzY2FwZTp3aW5kb3ctaGVpZ2h0PSIxMDE3IiBpbmtzY2FwZTp3aW5kb3ctbWF4aW1pemVkPSIxIiBpbmtzY2FwZTp3aW5kb3ctd2lkdGg9IjE5MjAiIGlua3NjYXBlOndpbmRvdy14PSItOCIgaW5rc2NhcGU6d2luZG93LXk9Ii04IiBpbmtzY2FwZTp6b29tPSI5LjEyNjMxODciIG9iamVjdHRvbGVyYW5jZT0iMTAiIHBhZ2Vjb2xvcj0iI2ZmZmZmZiIgc2hvd2dyaWQ9ImZhbHNlIj4mI3hhOwk8L3NvZGlwb2RpOm5hbWVkdmlldz4mI3hhOzxnIGlkPSJnMTU4NzAiIHRyYW5zZm9ybT0idHJhbnNsYXRlKC0wLjc1MDAzNjE5LC0wLjc1KSI+JiN4YTsJPHRpdGxlIGlkPSJ0aXRsZTE1NzQ2Ij5QYWdlLTE8L3RpdGxlPiYjeGE7CTxnIGlkPSJncm91cDc3OTktMSIgdHJhbnNmb3JtPSJ0cmFuc2xhdGUoMS41LC0xLjUpIj4mI3hhOwkJPHRpdGxlIGlkPSJ0aXRsZTE1NzQ4Ij5XZWIgU2VydmVyPC90aXRsZT4mI3hhOwkJPGcgaWQ9Imdyb3VwNzgwMC0yIj4mI3hhOwkJCTx0aXRsZSBpZD0idGl0bGUxNTc1MCI+U2hlZXQuNzgwMDwvdGl0bGU+JiN4YTsJCQk8ZyBpZD0iZ3JvdXA3ODAxLTMiPiYjeGE7CQkJCTx0aXRsZSBpZD0idGl0bGUxNTc1MiI+ZzE2NDA4PC90aXRsZT4mI3hhOwkJCQk8ZyBpZD0ic2hhcGU3ODAyLTQiPiYjeGE7CQkJCQk8dGl0bGUgaWQ9InRpdGxlMTU3NTQiPnJlY3QxNjM4MDwvdGl0bGU+JiN4YTsJCQkJCSYjeGE7CQkJCQkJPHJlY3QgaWQ9InJlY3QxNTc1NiIgeD0iMCIgeT0iMyIgc3R5bGU9ImZpbGw6I0ZGRkZGRjtzdHJva2U6IzU1NkE4QTtzdHJva2Utd2lkdGg6MS41O3N0cm9rZS1taXRlcmxpbWl0OjM7IiB3aWR0aD0iMzkuNzUiIGhlaWdodD0iNjguMjUiLz4mI3hhOwkJCQk8L2c+JiN4YTsJCQkJPGcgaWQ9Imdyb3VwNzgwMy02IiB0cmFuc2Zvcm09InRyYW5zbGF0ZSgxLjUsLTAuNzUpIj4mI3hhOwkJCQkJPHRpdGxlIGlkPSJ0aXRsZTE1NzU5Ij5nMTY0MDA8L3RpdGxlPiYjeGE7CQkJCQk8ZyBpZD0ic2hhcGU3ODA0LTciIHRyYW5zZm9ybT0idHJhbnNsYXRlKDE4KSI+JiN4YTsJCQkJCQk8dGl0bGUgaWQ9InRpdGxlMTU3NjEiPnJlY3QxNjM4MjwvdGl0bGU+JiN4YTsJCQkJCQk8cmVjdCBpZD0icmVjdDE1NzYzIiB4PSIwIiB5PSI0LjUiIHN0eWxlPSJmaWxsOiNFNUU1RTU7IiB3aWR0aD0iMTkuNSIgaGVpZ2h0PSI2Ni43NSIvPiYjeGE7CQkJCQk8L2c+JiN4YTsJCQkJCTxnIGlkPSJzaGFwZTc4MDUtOSIgdHJhbnNmb3JtPSJ0cmFuc2xhdGUoMCwtNDgpIj4mI3hhOwkJCQkJCTx0aXRsZSBpZD0idGl0bGUxNTc2NiI+cmVjdDE2Mzg0PC90aXRsZT4mI3hhOwkJCQkJCTxyZWN0IGlkPSJyZWN0MTU3NjgiIHg9IjAiIHk9IjY5IiBzdHlsZT0iZmlsbDojMkJDN0Y0OyIgd2lkdGg9IjE4IiBoZWlnaHQ9IjIuMjUiLz4mI3hhOwkJCQkJPC9nPiYjeGE7CQkJCQk8ZyBpZD0ic2hhcGU3ODA2LTExIiB0cmFuc2Zvcm09InRyYW5zbGF0ZSgwLC01OC41KSI+JiN4YTsJCQkJCQk8dGl0bGUgaWQ9InRpdGxlMTU3NzEiPnBvbHlnb24xNjM4NjwvdGl0bGU+JiN4YTsJCQkJCQk8cmVjdCBpZD0icmVjdDE1NzczIiB4PSIwIiB5PSI2OSIgc3R5bGU9ImZpbGw6bm9uZTsiIHdpZHRoPSIyNyIgaGVpZ2h0PSIyLjI1Ii8+JiN4YTsJCQkJCTwvZz4mI3hhOwkJCQkJPGcgaWQ9InNoYXBlNzgwNy0xMyIgdHJhbnNmb3JtPSJ0cmFuc2xhdGUoMCwtNTguNSkiPiYjeGE7CQkJCQkJPHRpdGxlIGlkPSJ0aXRsZTE1Nzc2Ij5wb2x5bGluZTE2Mzg4PC90aXRsZT4mI3hhOwkJCQkJCTxyZWN0IGlkPSJyZWN0MTU3NzgiIHg9IjAiIHk9IjY5IiBzdHlsZT0iZmlsbDpub25lOyIgd2lkdGg9IjI3IiBoZWlnaHQ9IjIuMjUiLz4mI3hhOwkJCQkJPC9nPiYjeGE7CQkJCQk8ZyBpZD0ic2hhcGU3ODA4LTE1IiB0cmFuc2Zvcm09InRyYW5zbGF0ZSgwLC01My4yNSkiPiYjeGE7CQkJCQkJPHRpdGxlIGlkPSJ0aXRsZTE1NzgxIj5yZWN0MTYzOTA8L3RpdGxlPiYjeGE7CQkJCQkJPHJlY3QgaWQ9InJlY3QxNTc4MyIgeD0iMCIgeT0iNjkiIHN0eWxlPSJmaWxsOiMyQkM3RjQ7IiB3aWR0aD0iMTgiIGhlaWdodD0iMi4yNSIvPiYjeGE7CQkJCQk8L2c+JiN4YTsJCQkJCTxnIGlkPSJzaGFwZTc4MDktMTciIHRyYW5zZm9ybT0idHJhbnNsYXRlKDAsLTU4LjUpIj4mI3hhOwkJCQkJCTx0aXRsZSBpZD0idGl0bGUxNTc4NiI+cmVjdDE2MzkyPC90aXRsZT4mI3hhOwkJCQkJCTxyZWN0IGlkPSJyZWN0MTU3ODgiIHg9IjAiIHk9IjY5IiBzdHlsZT0iZmlsbDojMkJDN0Y0OyIgd2lkdGg9IjE4IiBoZWlnaHQ9IjIuMjUiLz4mI3hhOwkJCQkJPC9nPiYjeGE7CQkJCQk8ZyBpZD0ic2hhcGU3ODEwLTE5IiB0cmFuc2Zvcm09InRyYW5zbGF0ZSgxOCwtNDgpIj4mI3hhOwkJCQkJCTx0aXRsZSBpZD0idGl0bGUxNTc5MSI+cmVjdDE2Mzk0PC90aXRsZT4mI3hhOwkJCQkJCTxyZWN0IGlkPSJyZWN0MTU3OTMiIHg9IjAiIHk9IjY5IiBzdHlsZT0iZmlsbDojNTU2QThBOyIgd2lkdGg9IjE5LjUiIGhlaWdodD0iMi4yNSIvPiYjeGE7CQkJCQk8L2c+JiN4YTsJCQkJCTxnIGlkPSJzaGFwZTc4MTEtMjEiIHRyYW5zZm9ybT0idHJhbnNsYXRlKDE4LC01My4yNSkiPiYjeGE7CQkJCQkJPHRpdGxlIGlkPSJ0aXRsZTE1Nzk2Ij5yZWN0MTYzOTY8L3RpdGxlPiYjeGE7CQkJCQkJPHJlY3QgaWQ9InJlY3QxNTc5OCIgeD0iMCIgeT0iNjkiIHN0eWxlPSJmaWxsOiM1NTZBOEE7IiB3aWR0aD0iMTkuNSIgaGVpZ2h0PSIyLjI1Ii8+JiN4YTsJCQkJCTwvZz4mI3hhOwkJCQkJPGcgaWQ9InNoYXBlNzgxMi0yMyIgdHJhbnNmb3JtPSJ0cmFuc2xhdGUoMTgsLTU4LjUpIj4mI3hhOwkJCQkJCTx0aXRsZSBpZD0idGl0bGUxNTgwMSI+cmVjdDE2Mzk4PC90aXRsZT4mI3hhOwkJCQkJCTxyZWN0IGlkPSJyZWN0MTU4MDMiIHg9IjAiIHk9IjY5IiBzdHlsZT0iZmlsbDojNTU2QThBOyIgd2lkdGg9IjE5LjUiIGhlaWdodD0iMi4yNSIvPiYjeGE7CQkJCQk8L2c+JiN4YTsJCQkJPC9nPiYjeGE7CQkJCTxnIGlkPSJzaGFwZTc4MTMtMjUiIHRyYW5zZm9ybT0idHJhbnNsYXRlKDAuNzUsLTU5LjI1KSI+JiN4YTsJCQkJCTx0aXRsZSBpZD0idGl0bGUxNTgwNyI+cmVjdDE2NDAyPC90aXRsZT4mI3hhOwkJCQkJPHJlY3QgaWQ9InJlY3QxNTgwOSIgeD0iMCIgeT0iNjkiIHN0eWxlPSJmaWxsOiM1NTZBOEE7IiB3aWR0aD0iMi4yNSIgaGVpZ2h0PSIyLjI1Ii8+JiN4YTsJCQkJPC9nPiYjeGE7CQkJCTxnIGlkPSJzaGFwZTc4MTQtMjciIHRyYW5zZm9ybT0idHJhbnNsYXRlKDAuNzUsLTU0KSI+JiN4YTsJCQkJCTx0aXRsZSBpZD0idGl0bGUxNTgxMiI+cmVjdDE2NDA0PC90aXRsZT4mI3hhOwkJCQkJPHJlY3QgaWQ9InJlY3QxNTgxNCIgeD0iMCIgeT0iNjkiIHN0eWxlPSJmaWxsOiM1NTZBOEE7IiB3aWR0aD0iMi4yNSIgaGVpZ2h0PSIyLjI1Ii8+JiN4YTsJCQkJPC9nPiYjeGE7CQkJCTxnIGlkPSJzaGFwZTc4MTUtMjkiIHRyYW5zZm9ybT0idHJhbnNsYXRlKDAuNzUsLTQ4Ljc1KSI+JiN4YTsJCQkJCTx0aXRsZSBpZD0idGl0bGUxNTgxNyI+cmVjdDE2NDA2PC90aXRsZT4mI3hhOwkJCQkJPHJlY3QgaWQ9InJlY3QxNTgxOSIgeD0iMCIgeT0iNjkiIHN0eWxlPSJmaWxsOiM1NTZBOEE7IiB3aWR0aD0iMi4yNSIgaGVpZ2h0PSIyLjI1Ii8+JiN4YTsJCQkJPC9nPiYjeGE7CQkJPC9nPiYjeGE7CQk8L2c+JiN4YTsJCTxnIGlkPSJncm91cDc4MTYtMzEiIHRyYW5zZm9ybT0idHJhbnNsYXRlKDI0LjA2NTgsLTIuMjc3NjcpIj4mI3hhOwkJCTx0aXRsZSBpZD0idGl0bGUxNTgyNCI+SFRUUC4xNDcyNDwvdGl0bGU+JiN4YTsJCQk8ZyBpZD0ic2hhcGU3ODE3LTMyIiB0cmFuc2Zvcm09InRyYW5zbGF0ZSg1LjAzOTM3LC01LjE4NjkxKSI+JiN4YTsJCQkJPHRpdGxlIGlkPSJ0aXRsZTE1ODI2Ij5wYXRoOTYxMDwvdGl0bGU+JiN4YTsJCQkJJiN4YTsJCQkJCTxwYXRoIGlkPSJwYXRoMTU4MjgiIGlua3NjYXBlOmNvbm5lY3Rvci1jdXJ2YXR1cmU9IjAiIHN0eWxlPSJmaWxsOiNGRkZGRkY7c3Ryb2tlOiM1NTZBOEE7c3Ryb2tlLXdpZHRoOjAuNzU7c3Ryb2tlLW1pdGVybGltaXQ6MzsiIGQ9IiAgICAgIE0yOC4xOCw1OS41OGMwLDkuMTItNy4zOSwxNi41MS0xNi41MSwxNi41MVMtNC44NCw2OC43LTQuODQsNTkuNThjMC05LjEyLDcuMzktMTYuNTEsMTYuNTEtMTYuNTEgICAgICBDMjAuNzksNDMuMDgsMjguMTcsNTAuNDYsMjguMTgsNTkuNTh6Ii8+JiN4YTsJCQk8L2c+JiN4YTsJCQk8ZyBpZD0ic2hhcGU3ODE4LTM0IiB0cmFuc2Zvcm09InRyYW5zbGF0ZSgwLjIwMzczMiwtMC4zNTEyNzQpIj4mI3hhOwkJCQk8dGl0bGUgaWQ9InRpdGxlMTU4MzEiPnBhdGg5NjEyPC90aXRsZT4mI3hhOwkJCQkmI3hhOwkJCQkJPHBhdGggaWQ9InBhdGgxNTgzMyIgaW5rc2NhcGU6Y29ubmVjdG9yLWN1cnZhdHVyZT0iMCIgc3R5bGU9ImZpbGw6I0Q0RTJGNTtzdHJva2U6IzU1NkE4QTtzdHJva2Utd2lkdGg6MC43NTtzdHJva2UtbWl0ZXJsaW1pdDozOyIgZD0iICAgICAgTTMzLjAyLDU0Ljc0YzAsOS4xMi03LjM5LDE2LjUxLTE2LjUxLDE2LjUxQzcuMzksNzEuMjUsMCw2My44NiwwLDU0Ljc0YzAsMCwwLDAsMCwwSDMzLjAyeiIvPiYjeGE7CQkJPC9nPiYjeGE7CQkJPGcgaWQ9InNoYXBlNzgxOS0zNiIgdHJhbnNmb3JtPSJ0cmFuc2xhdGUoMS4yNTc1NSwtNC45Mzg1MikiPiYjeGE7CQkJCTx0aXRsZSBpZD0idGl0bGUxNTgzNiI+cGF0aDk2MTQ8L3RpdGxlPiYjeGE7CQkJCSYjeGE7CQkJCQk8cGF0aCBpZD0icGF0aDE1ODM4IiBpbmtzY2FwZTpjb25uZWN0b3ItY3VydmF0dXJlPSIwIiBzdHlsZT0iZmlsbDojNTU2QThBO3N0cm9rZTojNTU2QThBO3N0cm9rZS13aWR0aDowLjc1O3N0cm9rZS1taXRlcmxpbWl0OjM7IiBkPSIgICAgICBNMTUuNDYsNDMuODdjOC41NCwwLDE1LjQ1LDYuOTIsMTUuNDUsMTUuNDZjMCw4LjU0LTYuOTIsMTUuNDUtMTUuNDYsMTUuNDVDNi45Miw3NC43OCwwLDY3Ljg2LDAsNTkuMzMgICAgICBDMCw1MC43OSw2LjkyLDQzLjg3LDE1LjQ2LDQzLjg3QzE1LjQ1LDQzLjg3LDE1LjQ2LDQzLjg3LDE1LjQ2LDQzLjg3eiBNMTUuNDYsNDIuNDdjLTkuMzEsMC0xNi44Niw3LjU1LTE2Ljg2LDE2Ljg2ICAgICAgczcuNTUsMTYuODYsMTYuODYsMTYuODZzMTYuODYtNy41NSwxNi44Ni0xNi44NmMwLDAsMCwwLDAsMEMzMi4zMiw1MC4wMiwyNC43Nyw0Mi40NywxNS40Niw0Mi40N3oiLz4mI3hhOwkJCTwvZz4mI3hhOwkJCTxnIGlkPSJncm91cDc4MjAtMzgiPiYjeGE7CQkJCTx0aXRsZSBpZD0idGl0bGUxNTg0MSI+Zzk2MjA8L3RpdGxlPiYjeGE7CQkJCTxnIGlkPSJzaGFwZTc4MjEtMzkiIHRyYW5zZm9ybT0idHJhbnNsYXRlKDguOTg1NTkpIj4mI3hhOwkJCQkJPHRpdGxlIGlkPSJ0aXRsZTE1ODQzIj5wYXRoOTYxNjwvdGl0bGU+JiN4YTsJCQkJCSYjeGE7CQkJCQkJPHBhdGggaWQ9InBhdGgxNTg0NSIgaW5rc2NhcGU6Y29ubmVjdG9yLWN1cnZhdHVyZT0iMCIgc3R5bGU9ImZpbGw6IzU1NkE4QTtzdHJva2U6IzU1NkE4QTtzdHJva2Utd2lkdGg6MC43NTtzdHJva2UtbWl0ZXJsaW1pdDozOyIgZD0iICAgICAgIE03LjM4LDM5LjEyYzIuODEsMCw1Ljk3LDYuNTcsNS45NywxNS4zNnMtMy4xNiwxNS4zNi01Ljk3LDE1LjM2cy01Ljk3LTYuNTYtNS45Ny0xNS4zNVM0LjU3LDM5LjEyLDcuMzgsMzkuMTJ6IE03LjM4LDM3LjcyICAgICAgIEMzLjMsMzcuNzIsMCw0NS4yMiwwLDU0LjQ4czMuMywxNi43Nyw3LjM4LDE2Ljc3YzQuMDcsMCw3LjM3LTcuNSw3LjM3LTE2Ljc2UzExLjQ1LDM3LjcyLDcuMzgsMzcuNzJ6Ii8+JiN4YTsJCQkJPC9nPiYjeGE7CQkJCTxnIGlkPSJzaGFwZTc4MjItNDEiIHRyYW5zZm9ybT0idHJhbnNsYXRlKDAsLTE2Ljg2MTIpIj4mI3hhOwkJCQkJPHRpdGxlIGlkPSJ0aXRsZTE1ODQ4Ij5saW5lOTYxODwvdGl0bGU+JiN4YTsJCQkJCSYjeGE7CQkJCQkJPHBhdGggaWQ9InBhdGgxNTg1MCIgaW5rc2NhcGU6Y29ubmVjdG9yLWN1cnZhdHVyZT0iMCIgc3R5bGU9ImZpbGw6bm9uZTtzdHJva2U6IzU1NkE4QTtzdHJva2Utd2lkdGg6MS41O3N0cm9rZS1taXRlcmxpbWl0OjM7IiBkPSIgICAgICAgTTAsNzEuMjVoMzIuODciLz4mI3hhOwkJCQk8L2c+JiN4YTsJCQk8L2c+JiN4YTsJCQk8ZyBpZD0ic2hhcGU3ODIzLTQ0IiB0cmFuc2Zvcm09InRyYW5zbGF0ZSg0LjA3NDc3LC0yNS4yOTE3KSI+JiN4YTsJCQkJPHRpdGxlIGlkPSJ0aXRsZTE1ODU0Ij5wYXRoOTYyMjwvdGl0bGU+JiN4YTsJCQkJPHBhdGggaWQ9InBhdGgxNTg1NiIgaW5rc2NhcGU6Y29ubmVjdG9yLWN1cnZhdHVyZT0iMCIgc3R5bGU9ImZpbGw6bm9uZTsiIGQ9Ik0wLDY5LjM1YzMuMDgsMS4yLDcuNjEsMS45LDEyLjY0LDEuOSAgICAgIHM5LjU1LTAuNywxMi42NC0xLjlIMHoiLz4mI3hhOwkJCQkmI3hhOwkJCQkJPHBhdGggaWQ9InBhdGgxNTg1OCIgaW5rc2NhcGU6Y29ubmVjdG9yLWN1cnZhdHVyZT0iMCIgc3R5bGU9ImZpbGw6bm9uZTtzdHJva2U6IzU1NkE4QTtzdHJva2Utd2lkdGg6MS41O3N0cm9rZS1taXRlcmxpbWl0OjM7IiBkPSIgICAgICBNMCw2OS4zNWMzLjA4LDEuMiw3LjYxLDEuOSwxMi42NCwxLjlzOS41NS0wLjcsMTIuNjQtMS45Ii8+JiN4YTsJCQk8L2c+JiN4YTsJCQk8ZyBpZD0ic2hhcGU3ODI0LTQ3IiB0cmFuc2Zvcm09InRyYW5zbGF0ZSg0LjA3NDc3LC02LjUyNjY4KSI+JiN4YTsJCQkJPHRpdGxlIGlkPSJ0aXRsZTE1ODYxIj5wYXRoOTYyNDwvdGl0bGU+JiN4YTsJCQkJPHBhdGggaWQ9InBhdGgxNTg2MyIgaW5rc2NhcGU6Y29ubmVjdG9yLWN1cnZhdHVyZT0iMCIgc3R5bGU9ImZpbGw6bm9uZTsiIGQ9Ik0wLDcxLjI1YzMuMDgtMS4yLDcuNjEtMS45LDEyLjY0LTEuOSAgICAgIHM5LjU1LDAuNywxMi42NCwxLjlIMHoiLz4mI3hhOwkJCQkmI3hhOwkJCQkJPHBhdGggaWQ9InBhdGgxNTg2NSIgaW5rc2NhcGU6Y29ubmVjdG9yLWN1cnZhdHVyZT0iMCIgc3R5bGU9ImZpbGw6bm9uZTtzdHJva2U6IzU1NkE4QTtzdHJva2Utd2lkdGg6MS41O3N0cm9rZS1taXRlcmxpbWl0OjM7IiBkPSIgICAgICBNMCw3MS4yNWMzLjA4LTEuMiw3LjYxLTEuOSwxMi42NC0xLjlzOS41NSwwLjcsMTIuNjQsMS45Ii8+JiN4YTsJCQk8L2c+JiN4YTsJCTwvZz4mI3hhOwk8L2c+JiN4YTs8L2c+JiN4YTs8L3N2Zz4=;" vertex="1" parent="1">
          <mxGeometry x="455.0000000000001" y="250" width="59" height="70" as="geometry" />
        </mxCell>
        <mxCell id="JtbzLgIfe00LMyJNrhl2-13" value="Hasura" style="shape=image;verticalLabelPosition=bottom;labelBackgroundColor=#ffffff;verticalAlign=top;aspect=fixed;imageAspect=0;image=data:image/svg+xml,PHN2ZyB4bWxuczpjYz0iaHR0cDovL2NyZWF0aXZlY29tbW9ucy5vcmcvbnMjIiB4bWxuczpkYz0iaHR0cDovL3B1cmwub3JnL2RjL2VsZW1lbnRzLzEuMS8iIHhtbG5zOmlua3NjYXBlPSJodHRwOi8vd3d3Lmlua3NjYXBlLm9yZy9uYW1lc3BhY2VzL2lua3NjYXBlIiB4bWxuczpyZGY9Imh0dHA6Ly93d3cudzMub3JnLzE5OTkvMDIvMjItcmRmLXN5bnRheC1ucyMiIHhtbG5zOnNvZGlwb2RpPSJodHRwOi8vc29kaXBvZGkuc291cmNlZm9yZ2UubmV0L0RURC9zb2RpcG9kaS0wLmR0ZCIgeG1sbnM6c3ZnPSJodHRwOi8vd3d3LnczLm9yZy8yMDAwL3N2ZyIgeG1sbnM9Imh0dHA6Ly93d3cudzMub3JnLzIwMDAvc3ZnIiB4bWxuczp4bGluaz0iaHR0cDovL3d3dy53My5vcmcvMTk5OS94bGluayIgdmVyc2lvbj0iMS4xIiBpZD0ic3ZnMjc3MDciIGlua3NjYXBlOnZlcnNpb249IjAuOTIuMyAoMjQwNTU0NiwgMjAxOC0wMy0xMSkiIHNvZGlwb2RpOmRvY25hbWU9InNlcnZpY2Vfc2VydmVyLnN2ZyIgeD0iMHB4IiB5PSIwcHgiIHZpZXdCb3g9IjAgMCA1NS40OCA2OS43NSIgc3R5bGU9ImVuYWJsZS1iYWNrZ3JvdW5kOm5ldyAwIDAgNTUuNDggNjkuNzU7IiB4bWw6c3BhY2U9InByZXNlcnZlIj4mI3hhOzxzb2RpcG9kaTpuYW1lZHZpZXcgYm9yZGVyY29sb3I9IiM2NjY2NjYiIGJvcmRlcm9wYWNpdHk9IjEiIGZpdC1tYXJnaW4tYm90dG9tPSIwIiBmaXQtbWFyZ2luLWxlZnQ9IjAiIGZpdC1tYXJnaW4tcmlnaHQ9IjAiIGZpdC1tYXJnaW4tdG9wPSIwIiBncmlkdG9sZXJhbmNlPSIxMCIgZ3VpZGV0b2xlcmFuY2U9IjEwIiBpZD0ibmFtZWR2aWV3Mjc3MDkiIGlua3NjYXBlOmN1cnJlbnQtbGF5ZXI9InN2ZzI3NzA3IiBpbmtzY2FwZTpjeD0iMzYuOTg3MjAxIiBpbmtzY2FwZTpjeT0iNDYuNTAwMDAyIiBpbmtzY2FwZTpwYWdlb3BhY2l0eT0iMCIgaW5rc2NhcGU6cGFnZXNoYWRvdz0iMiIgaW5rc2NhcGU6d2luZG93LWhlaWdodD0iMTAxNyIgaW5rc2NhcGU6d2luZG93LW1heGltaXplZD0iMSIgaW5rc2NhcGU6d2luZG93LXdpZHRoPSIxOTIwIiBpbmtzY2FwZTp3aW5kb3cteD0iLTgiIGlua3NjYXBlOndpbmRvdy15PSItOCIgaW5rc2NhcGU6em9vbT0iOS4xMjYzMTg3IiBvYmplY3R0b2xlcmFuY2U9IjEwIiBwYWdlY29sb3I9IiNmZmZmZmYiIHNob3dncmlkPSJmYWxzZSI+JiN4YTsJPC9zb2RpcG9kaTpuYW1lZHZpZXc+JiN4YTs8ZyBpZD0iZzI3NzA1IiB0cmFuc2Zvcm09InRyYW5zbGF0ZSgtMC43NSwtMC43NSkiPiYjeGE7CTx0aXRsZSBpZD0idGl0bGUyNzYxNiI+UGFnZS0xPC90aXRsZT4mI3hhOwk8ZyBpZD0iZ3JvdXA3NzgwLTEiIHRyYW5zZm9ybT0idHJhbnNsYXRlKDEuNSwtMS41KSI+JiN4YTsJCTx0aXRsZSBpZD0idGl0bGUyNzYxOCI+U2VydmljZSBTZXJ2ZXI8L3RpdGxlPiYjeGE7CQk8ZyBpZD0iZ3JvdXA3NzgxLTIiPiYjeGE7CQkJPHRpdGxlIGlkPSJ0aXRsZTI3NjIwIj5TaGVldC43NzgxPC90aXRsZT4mI3hhOwkJCTxnIGlkPSJncm91cDc3ODItMyI+JiN4YTsJCQkJPHRpdGxlIGlkPSJ0aXRsZTI3NjIyIj5nMTY0MDg8L3RpdGxlPiYjeGE7CQkJCTxnIGlkPSJzaGFwZTc3ODMtNCI+JiN4YTsJCQkJCTx0aXRsZSBpZD0idGl0bGUyNzYyNCI+cmVjdDE2MzgwPC90aXRsZT4mI3hhOwkJCQkJJiN4YTsJCQkJCQk8cmVjdCBpZD0icmVjdDI3NjI2IiB4PSIwIiB5PSIzIiBzdHlsZT0iZmlsbDojRkZGRkZGO3N0cm9rZTojNTU2QThBO3N0cm9rZS13aWR0aDoxLjU7c3Ryb2tlLW1pdGVybGltaXQ6MzsiIHdpZHRoPSIzOS43NSIgaGVpZ2h0PSI2OC4yNSIvPiYjeGE7CQkJCTwvZz4mI3hhOwkJCQk8ZyBpZD0iZ3JvdXA3Nzg0LTYiIHRyYW5zZm9ybT0idHJhbnNsYXRlKDEuNSwtMC43NSkiPiYjeGE7CQkJCQk8dGl0bGUgaWQ9InRpdGxlMjc2MjkiPmcxNjQwMDwvdGl0bGU+JiN4YTsJCQkJCTxnIGlkPSJzaGFwZTc3ODUtNyIgdHJhbnNmb3JtPSJ0cmFuc2xhdGUoMTgpIj4mI3hhOwkJCQkJCTx0aXRsZSBpZD0idGl0bGUyNzYzMSI+cmVjdDE2MzgyPC90aXRsZT4mI3hhOwkJCQkJCTxyZWN0IGlkPSJyZWN0Mjc2MzMiIHg9IjAiIHk9IjQuNSIgc3R5bGU9ImZpbGw6I0U1RTVFNTsiIHdpZHRoPSIxOS41IiBoZWlnaHQ9IjY2Ljc1Ii8+JiN4YTsJCQkJCTwvZz4mI3hhOwkJCQkJPGcgaWQ9InNoYXBlNzc4Ni05IiB0cmFuc2Zvcm09InRyYW5zbGF0ZSgwLC00OCkiPiYjeGE7CQkJCQkJPHRpdGxlIGlkPSJ0aXRsZTI3NjM2Ij5yZWN0MTYzODQ8L3RpdGxlPiYjeGE7CQkJCQkJPHJlY3QgaWQ9InJlY3QyNzYzOCIgeD0iMCIgeT0iNjkiIHN0eWxlPSJmaWxsOiMyQkM3RjQ7IiB3aWR0aD0iMTgiIGhlaWdodD0iMi4yNSIvPiYjeGE7CQkJCQk8L2c+JiN4YTsJCQkJCTxnIGlkPSJzaGFwZTc3ODctMTEiIHRyYW5zZm9ybT0idHJhbnNsYXRlKDAsLTU4LjUpIj4mI3hhOwkJCQkJCTx0aXRsZSBpZD0idGl0bGUyNzY0MSI+cG9seWdvbjE2Mzg2PC90aXRsZT4mI3hhOwkJCQkJCTxyZWN0IGlkPSJyZWN0Mjc2NDMiIHg9IjAiIHk9IjY5IiBzdHlsZT0iZmlsbDpub25lOyIgd2lkdGg9IjI3IiBoZWlnaHQ9IjIuMjUiLz4mI3hhOwkJCQkJPC9nPiYjeGE7CQkJCQk8ZyBpZD0ic2hhcGU3Nzg4LTEzIiB0cmFuc2Zvcm09InRyYW5zbGF0ZSgwLC01OC41KSI+JiN4YTsJCQkJCQk8dGl0bGUgaWQ9InRpdGxlMjc2NDYiPnBvbHlsaW5lMTYzODg8L3RpdGxlPiYjeGE7CQkJCQkJPHJlY3QgaWQ9InJlY3QyNzY0OCIgeD0iMCIgeT0iNjkiIHN0eWxlPSJmaWxsOm5vbmU7IiB3aWR0aD0iMjciIGhlaWdodD0iMi4yNSIvPiYjeGE7CQkJCQk8L2c+JiN4YTsJCQkJCTxnIGlkPSJzaGFwZTc3ODktMTUiIHRyYW5zZm9ybT0idHJhbnNsYXRlKDAsLTUzLjI1KSI+JiN4YTsJCQkJCQk8dGl0bGUgaWQ9InRpdGxlMjc2NTEiPnJlY3QxNjM5MDwvdGl0bGU+JiN4YTsJCQkJCQk8cmVjdCBpZD0icmVjdDI3NjUzIiB4PSIwIiB5PSI2OSIgc3R5bGU9ImZpbGw6IzJCQzdGNDsiIHdpZHRoPSIxOCIgaGVpZ2h0PSIyLjI1Ii8+JiN4YTsJCQkJCTwvZz4mI3hhOwkJCQkJPGcgaWQ9InNoYXBlNzc5MC0xNyIgdHJhbnNmb3JtPSJ0cmFuc2xhdGUoMCwtNTguNSkiPiYjeGE7CQkJCQkJPHRpdGxlIGlkPSJ0aXRsZTI3NjU2Ij5yZWN0MTYzOTI8L3RpdGxlPiYjeGE7CQkJCQkJPHJlY3QgaWQ9InJlY3QyNzY1OCIgeD0iMCIgeT0iNjkiIHN0eWxlPSJmaWxsOiMyQkM3RjQ7IiB3aWR0aD0iMTgiIGhlaWdodD0iMi4yNSIvPiYjeGE7CQkJCQk8L2c+JiN4YTsJCQkJCTxnIGlkPSJzaGFwZTc3OTEtMTkiIHRyYW5zZm9ybT0idHJhbnNsYXRlKDE4LC00OCkiPiYjeGE7CQkJCQkJPHRpdGxlIGlkPSJ0aXRsZTI3NjYxIj5yZWN0MTYzOTQ8L3RpdGxlPiYjeGE7CQkJCQkJPHJlY3QgaWQ9InJlY3QyNzY2MyIgeD0iMCIgeT0iNjkiIHN0eWxlPSJmaWxsOiM1NTZBOEE7IiB3aWR0aD0iMTkuNSIgaGVpZ2h0PSIyLjI1Ii8+JiN4YTsJCQkJCTwvZz4mI3hhOwkJCQkJPGcgaWQ9InNoYXBlNzc5Mi0yMSIgdHJhbnNmb3JtPSJ0cmFuc2xhdGUoMTgsLTUzLjI1KSI+JiN4YTsJCQkJCQk8dGl0bGUgaWQ9InRpdGxlMjc2NjYiPnJlY3QxNjM5NjwvdGl0bGU+JiN4YTsJCQkJCQk8cmVjdCBpZD0icmVjdDI3NjY4IiB4PSIwIiB5PSI2OSIgc3R5bGU9ImZpbGw6IzU1NkE4QTsiIHdpZHRoPSIxOS41IiBoZWlnaHQ9IjIuMjUiLz4mI3hhOwkJCQkJPC9nPiYjeGE7CQkJCQk8ZyBpZD0ic2hhcGU3NzkzLTIzIiB0cmFuc2Zvcm09InRyYW5zbGF0ZSgxOCwtNTguNSkiPiYjeGE7CQkJCQkJPHRpdGxlIGlkPSJ0aXRsZTI3NjcxIj5yZWN0MTYzOTg8L3RpdGxlPiYjeGE7CQkJCQkJPHJlY3QgaWQ9InJlY3QyNzY3MyIgeD0iMCIgeT0iNjkiIHN0eWxlPSJmaWxsOiM1NTZBOEE7IiB3aWR0aD0iMTkuNSIgaGVpZ2h0PSIyLjI1Ii8+JiN4YTsJCQkJCTwvZz4mI3hhOwkJCQk8L2c+JiN4YTsJCQkJPGcgaWQ9InNoYXBlNzc5NC0yNSIgdHJhbnNmb3JtPSJ0cmFuc2xhdGUoMC43NSwtNTkuMjUpIj4mI3hhOwkJCQkJPHRpdGxlIGlkPSJ0aXRsZTI3Njc3Ij5yZWN0MTY0MDI8L3RpdGxlPiYjeGE7CQkJCQk8cmVjdCBpZD0icmVjdDI3Njc5IiB4PSIwIiB5PSI2OSIgc3R5bGU9ImZpbGw6IzU1NkE4QTsiIHdpZHRoPSIyLjI1IiBoZWlnaHQ9IjIuMjUiLz4mI3hhOwkJCQk8L2c+JiN4YTsJCQkJPGcgaWQ9InNoYXBlNzc5NS0yNyIgdHJhbnNmb3JtPSJ0cmFuc2xhdGUoMC43NSwtNTQpIj4mI3hhOwkJCQkJPHRpdGxlIGlkPSJ0aXRsZTI3NjgyIj5yZWN0MTY0MDQ8L3RpdGxlPiYjeGE7CQkJCQk8cmVjdCBpZD0icmVjdDI3Njg0IiB4PSIwIiB5PSI2OSIgc3R5bGU9ImZpbGw6IzU1NkE4QTsiIHdpZHRoPSIyLjI1IiBoZWlnaHQ9IjIuMjUiLz4mI3hhOwkJCQk8L2c+JiN4YTsJCQkJPGcgaWQ9InNoYXBlNzc5Ni0yOSIgdHJhbnNmb3JtPSJ0cmFuc2xhdGUoMC43NSwtNDguNzUpIj4mI3hhOwkJCQkJPHRpdGxlIGlkPSJ0aXRsZTI3Njg3Ij5yZWN0MTY0MDY8L3RpdGxlPiYjeGE7CQkJCQk8cmVjdCBpZD0icmVjdDI3Njg5IiB4PSIwIiB5PSI2OSIgc3R5bGU9ImZpbGw6IzU1NkE4QTsiIHdpZHRoPSIyLjI1IiBoZWlnaHQ9IjIuMjUiLz4mI3hhOwkJCQk8L2c+JiN4YTsJCQk8L2c+JiN4YTsJCTwvZz4mI3hhOwkJPGcgaWQ9InNoYXBlNzc5Ny0zMSIgdHJhbnNmb3JtPSJ0cmFuc2xhdGUoMzIuNzEwNiwtMTIuMTI0KSI+JiN4YTsJCQk8dGl0bGUgaWQ9InRpdGxlMjc2OTQiPnBhdGg5NjEwPC90aXRsZT4mI3hhOwkJCSYjeGE7CQkJCTxwYXRoIGlkPSJwYXRoMjc2OTYiIGlua3NjYXBlOmNvbm5lY3Rvci1jdXJ2YXR1cmU9IjAiIHN0eWxlPSJmaWxsOiNENEUyRjU7c3Ryb2tlOiM1NTZBOEE7c3Ryb2tlLXdpZHRoOjAuNzU7c3Ryb2tlLW1pdGVybGltaXQ6MzsiIGQ9IiAgICAgTTE3LjAxLDY0LjIxYzAsNS41LTQuNDcsOS45Ni05Ljk3LDkuOTZjLTUuNSwwLTkuOTYtNC40Ny05Ljk2LTkuOTdjMC01LjUsNC40Ni05Ljk1LDkuOTYtOS45NiAgICAgQzEyLjU1LDU0LjI0LDE3LjAxLDU4LjcsMTcuMDEsNjQuMjF6Ii8+JiN4YTsJCTwvZz4mI3hhOwkJPGcgaWQ9InNoYXBlNzc5OC0zMyIgdHJhbnNmb3JtPSJ0cmFuc2xhdGUoMjQuNzMwNSwtNC4xMzg4MykiPiYjeGE7CQkJPHRpdGxlIGlkPSJ0aXRsZTI3Njk5Ij5wYXRoMjUzMC4yNDAyPC90aXRsZT4mI3hhOwkJCTxwYXRoIGlkPSJwYXRoMjc3MDEiIGlua3NjYXBlOmNvbm5lY3Rvci1jdXJ2YXR1cmU9IjAiIHN0eWxlPSJmaWxsOiM5MjczQjY7IiBkPSJNMjkuNTMsNTQuNDJsLTMuNTktMC40ICAgICBjLTAuMjgtMC4wMy0wLjUxLTAuMjQtMC41Ni0wLjUxYy0wLjIxLTAuODgtMC41My0xLjc0LTAuOTYtMi41NGMtMC4xMi0wLjI1LTAuMDgtMC41NCwwLjA5LTAuNzVsMi4yNS0yLjc4ICAgICBjMC4yMy0wLjI4LDAuMjEtMC42OS0wLjA1LTAuOTRsLTEuODctMS44NmMtMC4yNS0wLjI1LTAuNjUtMC4yNy0wLjkyLTAuMDVsLTIuNywyLjE2Yy0wLjIyLDAuMTctMC41MSwwLjE5LTAuNzUsMC4wNiAgICAgYy0wLjc1LTAuNDUtMS41Ni0wLjgtMi40LTEuMDVjLTAuMjYtMC4wOC0wLjQ1LTAuMzEtMC40OC0wLjU4bC0wLjM5LTMuNDZjLTAuMDQtMC4zNS0wLjM0LTAuNDctMC42OS0wLjQ3aC0yLjY1ICAgICBjLTAuMzUsMC0wLjY1LDAuMTMtMC42OSwwLjQ3bC0wLjM4LDMuNDJjLTAuMDQsMC4yOC0wLjI1LDAuNTEtMC41MywwLjU2Yy0wLjkzLDAuMjQtMS44MiwwLjYtMi42NiwxLjA4ICAgICBjLTAuMjQsMC4xMy0wLjUzLDAuMTEtMC43NS0wLjA2TDYuMiw0NC41OWMtMC4yNy0wLjIyLTAuNjctMC4yLTAuOTIsMC4wNGwtMS44OSwxLjg4Yy0wLjI1LDAuMjUtMC4yNywwLjY1LTAuMDUsMC45MmwyLjE3LDIuNzEgICAgIGMwLjE3LDAuMjIsMC4xOSwwLjUxLDAuMDYsMC43NWMtMC40NSwwLjgyLTAuNzksMS43LTEuMDEsMi42MWMtMC4wNywwLjI4LTAuMzIsMC40OS0wLjYxLDAuNTJMMC41Miw1NC40ICAgICBDMC4xOSw1NC40NS0wLjA0LDU0Ljc2LDAsNTUuMDlsMCwyLjY3Yy0wLjA0LDAuMzMsMC4xOSwwLjY0LDAuNTIsMC42OWwzLjY5LDAuNGMwLjI3LDAuMDMsMC40OSwwLjIyLDAuNTYsMC40NyAgICAgYzAuMjEsMC42OSwwLjUsMS4zNSwwLjg1LDEuOThjMC4xMywwLjI0LDAuMSwwLjU0LTAuMDcsMC43NWwtMi4yMiwyLjc0Yy0wLjIyLDAuMjctMC4yLDAuNjcsMC4wNSwwLjkybDEuODcsMS44NyAgICAgYzAuMjUsMC4yNSwwLjY1LDAuMjcsMC45MiwwLjA1bDIuNzMtMi4xOWMwLjIzLTAuMTgsMC41NC0wLjIsMC43OS0wLjA1YzAuNzIsMC40MSwxLjQ5LDAuNzQsMi4yOCwwLjk3ICAgICBjMC4yOCwwLjA3LDAuNDgsMC4zMSwwLjUxLDAuNTlsMC40LDMuNjhjMC4wNCwwLjM1LDAuMzQsMC42MiwwLjY5LDAuNjFsMi42NSwwYzAuMzUsMCwwLjY1LTAuMjYsMC42OS0wLjYxbDAuMzktMy42NCAgICAgYzAuMDMtMC4yOCwwLjIzLTAuNTEsMC41LTAuNThjMC44OS0wLjI0LDEuNzUtMC42LDIuNTUtMS4wNmMwLjI0LTAuMTMsMC41NC0wLjEsMC43NSwwLjA3bDIuNzcsMi4yNCAgICAgYzAuMjgsMC4yMiwwLjY3LDAuMiwwLjkyLTAuMDVsMS44Ny0xLjg3YzAuMjUtMC4yNSwwLjI3LTAuNjUsMC4wNS0wLjkybC0yLjI0LTIuODNjLTAuMTYtMC4yMi0wLjE5LTAuNTEtMC4wNi0wLjc1ICAgICBjMC4zMi0wLjU5LDAuNTgtMS4yLDAuNzgtMS44NGMwLjA4LTAuMjYsMC4zMS0wLjQ2LDAuNTgtMC40OWwzLjc2LTAuNDJDMjkuODcsNTguNDUsMzAsNTguMTUsMzAsNTcuOHYtMi42NSAgICAgQzMwLjAxLDU0Ljc2LDI5Ljg4LDU0LjQ2LDI5LjUzLDU0LjQyeiBNMTUuMDEsNjEuNjJjLTMuMDQsMC01LjUxLTIuNDYtNS41MS01LjVjMC0zLjA0LDIuNDYtNS41MSw1LjUtNS41MSAgICAgYzMuMDQsMCw1LjUxLDIuNDYsNS41MSw1LjVDMjAuNTEsNTkuMTUsMTguMDUsNjEuNjIsMTUuMDEsNjEuNjJDMTUuMDEsNjEuNjIsMTUuMDEsNjEuNjIsMTUuMDEsNjEuNjJ6Ii8+JiN4YTsJCTwvZz4mI3hhOwk8L2c+JiN4YTs8L2c+JiN4YTs8L3N2Zz4=;" vertex="1" parent="1">
          <mxGeometry x="329.9999999999999" y="197.00000000000364" width="55" height="70" as="geometry" />
        </mxCell>
        <mxCell id="JtbzLgIfe00LMyJNrhl2-18" value="" style="shape=image;verticalLabelPosition=bottom;labelBackgroundColor=#ffffff;verticalAlign=top;aspect=fixed;imageAspect=0;image=data:image/svg+xml,PHN2ZyB4bWxuczpjYz0iaHR0cDovL2NyZWF0aXZlY29tbW9ucy5vcmcvbnMjIiB4bWxuczpkYz0iaHR0cDovL3B1cmwub3JnL2RjL2VsZW1lbnRzLzEuMS8iIHhtbG5zOmlua3NjYXBlPSJodHRwOi8vd3d3Lmlua3NjYXBlLm9yZy9uYW1lc3BhY2VzL2lua3NjYXBlIiB4bWxuczpyZGY9Imh0dHA6Ly93d3cudzMub3JnLzE5OTkvMDIvMjItcmRmLXN5bnRheC1ucyMiIHhtbG5zOnNvZGlwb2RpPSJodHRwOi8vc29kaXBvZGkuc291cmNlZm9yZ2UubmV0L0RURC9zb2RpcG9kaS0wLmR0ZCIgeG1sbnM6c3ZnPSJodHRwOi8vd3d3LnczLm9yZy8yMDAwL3N2ZyIgeG1sbnM9Imh0dHA6Ly93d3cudzMub3JnLzIwMDAvc3ZnIiB4bWxuczp4bGluaz0iaHR0cDovL3d3dy53My5vcmcvMTk5OS94bGluayIgdmVyc2lvbj0iMS4xIiBpZD0ic3ZnMTU3MTE1IiBpbmtzY2FwZTp2ZXJzaW9uPSIwLjkyLjMgKDI0MDU1NDYsIDIwMTgtMDMtMTEpIiBzb2RpcG9kaTpkb2NuYW1lPSJmaXJld2FsbF8xLnN2ZyIgeD0iMHB4IiB5PSIwcHgiIHZpZXdCb3g9IjAgMCA3MS44OCA1Ni40NiIgc3R5bGU9ImVuYWJsZS1iYWNrZ3JvdW5kOm5ldyAwIDAgNzEuODggNTYuNDY7IiB4bWw6c3BhY2U9InByZXNlcnZlIj4mI3hhOzxzb2RpcG9kaTpuYW1lZHZpZXcgYm9yZGVyY29sb3I9IiM2NjY2NjYiIGJvcmRlcm9wYWNpdHk9IjEiIGZpdC1tYXJnaW4tYm90dG9tPSIwIiBmaXQtbWFyZ2luLWxlZnQ9IjAiIGZpdC1tYXJnaW4tcmlnaHQ9IjAiIGZpdC1tYXJnaW4tdG9wPSIwIiBncmlkdG9sZXJhbmNlPSIxMCIgZ3VpZGV0b2xlcmFuY2U9IjEwIiBpZD0ibmFtZWR2aWV3MTU3MTE3IiBpbmtzY2FwZTpjdXJyZW50LWxheWVyPSJzdmcxNTcxMTUiIGlua3NjYXBlOmN4PSI0Ny45MTgyNCIgaW5rc2NhcGU6Y3k9IjM3LjYzNzY0NyIgaW5rc2NhcGU6cGFnZW9wYWNpdHk9IjAiIGlua3NjYXBlOnBhZ2VzaGFkb3c9IjIiIGlua3NjYXBlOndpbmRvdy1oZWlnaHQ9IjEwMTciIGlua3NjYXBlOndpbmRvdy1tYXhpbWl6ZWQ9IjEiIGlua3NjYXBlOndpbmRvdy13aWR0aD0iMTkyMCIgaW5rc2NhcGU6d2luZG93LXg9Ii04IiBpbmtzY2FwZTp3aW5kb3cteT0iLTgiIGlua3NjYXBlOnpvb209IjExLjIxODI2MSIgb2JqZWN0dG9sZXJhbmNlPSIxMCIgcGFnZWNvbG9yPSIjZmZmZmZmIiBzaG93Z3JpZD0iZmFsc2UiPiYjeGE7CTwvc29kaXBvZGk6bmFtZWR2aWV3PiYjeGE7PGcgaWQ9ImcxNTcxMTMiIHRyYW5zZm9ybT0idHJhbnNsYXRlKC0wLjc1LC0wLjc0OTI4MjEyKSI+JiN4YTsJPHRpdGxlIGlkPSJ0aXRsZTE1NzA5OCI+UGFnZS0xPC90aXRsZT4mI3hhOwk8ZyBpZD0iZ3JvdXA5NTM4LTEiIHRyYW5zZm9ybT0idHJhbnNsYXRlKDAuNzUsLTAuNzUpIj4mI3hhOwkJPHRpdGxlIGlkPSJ0aXRsZTE1NzEwMCI+RmlyZXdhbGwgIzE8L3RpdGxlPiYjeGE7CQk8ZyBpZD0ic2hhcGU5NTM5LTIiIHRyYW5zZm9ybT0idHJhbnNsYXRlKDAsLTcuNDg3MDllLTQpIj4mI3hhOwkJCTx0aXRsZSBpZD0idGl0bGUxNTcxMDIiPnBhdGgxNTI5MS4zMjI1MjwvdGl0bGU+JiN4YTsJCQk8cGF0aCBpZD0icGF0aDE1NzEwNCIgaW5rc2NhcGU6Y29ubmVjdG9yLWN1cnZhdHVyZT0iMCIgc3R5bGU9ImZpbGw6IzQzNTY3MDsiIGQ9Ik0yMS45MSwxNy42MmMtMC41MSwwLjUxLTAuNzYsMS4xMS0wLjc2LDEuODEgICAgIHY1LjEzYzAsMC43LDAuMjUsMS4zLDAuNzYsMS44MWMwLjUxLDAuNSwxLjExLDAuNzYsMS44LDAuNzZoMTEuMzRjMC4yNy0yLjY0LDIuNjMtNC41Nyw1LjI4LTQuM2MwLjk1LDAuMSwxLjg0LDAuNDcsMi41NywxLjA4ICAgICBjMC44Ni0yLjIyLDEuNDQtNC41NywxLjc0LTcuMDVIMjMuNzFDMjMuMDIsMTYuODYsMjIuNDIsMTcuMTEsMjEuOTEsMTcuNjJ6IE0xMy40NSw0Ny43SDIuNTdjLTAuNywwLTEuMywwLjI1LTEuODEsMC43NiAgICAgQzAuMjUsNDguOTcsMCw0OS41NywwLDUwLjI2djUuMTRjMCwwLjY5LDAuMjUsMS4yOSwwLjc2LDEuOHMxLjExLDAuNzYsMS44MSwwLjc2aDEwLjg4YzAuNjksMCwxLjI5LTAuMjUsMS44LTAuNzYgICAgIHMwLjc2LTEuMTEsMC43Ni0xLjh2LTUuMTRjMC0wLjY5LTAuMjUtMS4yOS0wLjc2LTEuOEMxNC43NSw0Ny45NSwxNC4xNCw0Ny43LDEzLjQ1LDQ3Ljd6IE0yLjU3LDQyLjU2aDE4LjU4ICAgICBjMC42OSwwLDEuMjktMC4yNSwxLjgtMC43NmMwLjUxLTAuNSwwLjc2LTEuMTEsMC43Ni0xLjh2LTUuMTNjMC0wLjctMC4yNS0xLjMtMC43Ni0xLjgxYy0wLjUxLTAuNTEtMS4xMS0wLjc2LTEuOC0wLjc2SDIuNTcgICAgIGMtMC43LDAtMS4zLDAuMjUtMS44MSwwLjc2UzAsMzQuMTcsMCwzNC44N1Y0MGMwLDAuNjksMC4yNSwxLjMsMC43NiwxLjhDMS4yNyw0Mi4zMSwxLjg3LDQyLjU2LDIuNTcsNDIuNTZ6IE0zMi4yNiw1Mi43NyAgICAgTDMyLjI2LDUyLjc3Yy0wLjkyLTEuNTctMS41Ny0zLjI4LTEuOTEtNS4wN2gtNi42NGMtMC42OSwwLTEuMjksMC4yNS0xLjgsMC43NnMtMC43NiwxLjExLTAuNzYsMS44djUuMTQgICAgIGMwLDAuNjksMC4yNSwxLjI5LDAuNzYsMS44czEuMTEsMC43NiwxLjgsMC43NmgxMy4xQzM0LjgzLDU2LjMsMzMuMzIsNTQuNTcsMzIuMjYsNTIuNzd6IE00Ny4yMiw5LjQ1ICAgICBjMS41MS0wLjgzLDMuMzUtMC44LDQuODMsMC4wOWMwLjQsMC4yNCwwLjg4LDAuNTUsMS41MSwwLjk4YzAsMC4wMSwwLjAxLDAuMDEsMC4wMSwwLjAxYzAuMjksMC4yLDAuNzYsMC41NCwxLjcxLDEuMzFoMTQuMDEgICAgIGMwLjcsMCwxLjMxLTAuMjYsMS44Mi0wLjc3czAuNzctMS4xMiwwLjc3LTEuODJWNC4wOGMwLTAuNy0wLjI2LTEuMy0wLjc3LTEuODFDNzAuNiwxLjc2LDY5Ljk5LDEuNSw2OS4yOSwxLjVINDguNDQgICAgIGMtMC43LDAtMS4zMSwwLjI2LTEuODIsMC43N3MtMC43NywxLjExLTAuNzcsMS44MXY1LjE3YzAsMC4zOSwwLjA4LDAuNzQsMC4yMywxLjA3QzQ2LjQyLDkuOTgsNDYuOCw5LjY4LDQ3LjIyLDkuNDV6ICAgICAgTTIuNTcsMjcuMTNoMTAuODhjMC42OSwwLDEuMjktMC4yNiwxLjgtMC43N2MwLjUxLTAuNSwwLjc2LTEuMSwwLjc2LTEuOHYtNS4xM2MwLTAuNy0wLjI1LTEuMy0wLjc2LTEuODFzLTEuMTEtMC43Ni0xLjgtMC43NiAgICAgSDIuNTdjLTAuNywwLTEuMywwLjI1LTEuODEsMC43NkMwLjI1LDE4LjEzLDAsMTguNzMsMCwxOS40M3Y1LjEzYzAsMC43LDAuMjUsMS4zLDAuNzYsMS44QzEuMjcsMjYuODcsMS44NywyNy4xMywyLjU3LDI3LjEzeiAgICAgIE0zMS40MSwxMS43N2g2LjljMC43LDAsMS4zLTAuMjYsMS44LTAuNzdjMC41MS0wLjUsMC43Ny0xLjEsMC43Ny0xLjhWNC4wN2MwLTAuNy0wLjI2LTEuMy0wLjc3LTEuODEgICAgIGMtMC41LTAuNTEtMS4xLTAuNzYtMS44LTAuNzZoLTYuOWMtMC42OSwwLTEuMjksMC4yNS0xLjgsMC43NnMtMC43NiwxLjExLTAuNzYsMS44MVY5LjJjMCwwLjcsMC4yNSwxLjMsMC43NiwxLjgxICAgICBDMzAuMTIsMTEuNTEsMzAuNzIsMTEuNzcsMzEuNDEsMTEuNzd6IE0yLjU3LDExLjc3aDE4LjU4YzAuNjksMCwxLjI5LTAuMjYsMS44LTAuNzdjMC41MS0wLjUsMC43Ni0xLjEsMC43Ni0xLjhWNC4wNyAgICAgYzAtMC43LTAuMjUtMS4zLTAuNzYtMS44MWMtMC41MS0wLjUxLTEuMTEtMC43Ni0xLjgtMC43NkgyLjU3Yy0wLjcsMC0xLjMsMC4yNS0xLjgxLDAuNzZTMCwzLjM3LDAsNC4wN1Y5LjIgICAgIGMwLDAuNywwLjI1LDEuMywwLjc2LDEuODFDMS4yNywxMS41MSwxLjg3LDExLjc3LDIuNTcsMTEuNzd6Ii8+JiN4YTsJCTwvZz4mI3hhOwkJPGcgaWQ9InNoYXBlOTU0MC00IiB0cmFuc2Zvcm09InRyYW5zbGF0ZSgzNC40OTE1KSI+JiN4YTsJCQk8dGl0bGUgaWQ9InRpdGxlMTU3MTA3Ij5wYXRoMTUyOTMuMzIyNTM8L3RpdGxlPiYjeGE7CQkJPHBhdGggaWQ9InBhdGgxNTcxMDkiIGlua3NjYXBlOmNvbm5lY3Rvci1jdXJ2YXR1cmU9IjAiIHN0eWxlPSJmaWxsOiNGRjAwMDA7IiBkPSJNMTAuODYsNTcuOTZjLTQuNDUtMi41MS03LjQzLTUuMDUtOC45NC03LjYzICAgICBDMC40LDQ3Ljc1LDAsNDQuNzYsMC43MSw0MS4zNGMwLjMyLTEuMzUsMS4xNC0zLjUyLDIuNDYtNi41MmMxLjMyLTIuOTksMi4wNS01LjM5LDIuMTgtNy4yYzEuMjksMi4zOSwyLjAzLDQuNzcsMi4yMiw3LjE1ICAgICBjNC45LTYuMDUsNy40NC0xMy4xLDcuNjQtMjEuMTZjMC4zMiwwLjIsMC43NCwwLjQ3LDEuMjUsMC44MmMwLjUyLDAuMzYsMS40NywxLjExLDIuODUsMi4yN2MxLjM5LDEuMTYsMi42MSwyLjM3LDMuNjcsMy42MyAgICAgYzEuMDcsMS4yNSwyLjA2LDIuODUsMyw0Ljc4YzAuOTMsMS45MywxLjUsMy44NywxLjY5LDUuOGMwLjUxLTEuMTYsMC44NC0yLjQ1LDAuOTctMy44N2MwLjEzLTEuNDEtMC4wNC0yLjc0LTAuNDktMy45NiAgICAgYzAuNTIsMC4zOSwxLjE5LDEuMDMsMi4wMywxLjkzYzAuODQsMC45MSwxLjc3LDIuMTMsMi44LDMuNjdjMS4wNSwxLjU3LDEuOTcsMy4yMiwyLjc2LDQuOTNjMC44LDEuNzQsMS4zMiwzLjY5LDEuNTQsNS44NSAgICAgYzAuMjMsMi4xNiwwLjA4LDQuMjUtMC40Myw2LjI4Yy0wLjUyLDIuMDMtMS43MSw0LjEyLTMuNTgsNi4yOGMtMS44NywyLjE2LTQuMzgsNC4xNC03LjUzLDUuOTRjMi4xMi00LjI1LDIuNTQtOC44NCwxLjI1LTEzLjc3ICAgICBzLTMuODMtOC43MS03LjYzLTExLjM1YzAuMzIsMS40MiwwLjE0LDMuNzUtMC41Myw3Yy0wLjY4LDMuMjYtMS43Niw1LjcyLTMuMjQsNy40YzAuMjYtMi4wNywwLjMyLTMuNzQsMC4xOS01LjAzICAgICBjLTAuMTMtMS4yOS0wLjMyLTIuMjUtMC41OC0yLjlsLTAuNDgtMC44N2MtMC4zOSwyLjMyLTEuMzksNC42NC0yLjk5LDYuOTZjLTAuODQsMS4yMy0xLjQ3LDIuMzUtMS44OSwzLjM4ICAgICBjLTAuNDIsMS4wMy0wLjU4LDIuMzUtMC40OCwzLjk2QzkuNDYsNTQuMzYsOS45NSw1Ni4xLDEwLjg2LDU3Ljk2eiIvPiYjeGE7CQk8L2c+JiN4YTsJPC9nPiYjeGE7PC9nPiYjeGE7PC9zdmc+;" vertex="1" parent="1">
          <mxGeometry x="560" y="215.67" width="42" height="32.67" as="geometry" />
        </mxCell>
        <mxCell id="JtbzLgIfe00LMyJNrhl2-19" value="Railsbank" style="outlineConnect=0;dashed=0;verticalLabelPosition=bottom;verticalAlign=top;align=center;html=1;shape=mxgraph.aws3.bank;fillColor=#5294CF;gradientColor=none;" vertex="1" parent="1">
          <mxGeometry x="40" y="128" width="79.5" height="79.5" as="geometry" />
        </mxCell>
        <mxCell id="JtbzLgIfe00LMyJNrhl2-20" value="Files" style="aspect=fixed;html=1;points=[];align=center;image;fontSize=12;image=img/lib/azure2/general/Files.svg;" vertex="1" parent="1">
          <mxGeometry x="450" y="90" width="64" height="70" as="geometry" />
        </mxCell>
        <mxCell id="JtbzLgIfe00LMyJNrhl2-2" value="Naboo client" style="shape=image;verticalLabelPosition=bottom;labelBackgroundColor=#ffffff;verticalAlign=top;aspect=fixed;imageAspect=0;image=data:image/svg+xml,PHN2ZyB4bWxuczpjYz0iaHR0cDovL2NyZWF0aXZlY29tbW9ucy5vcmcvbnMjIiB4bWxuczpkYz0iaHR0cDovL3B1cmwub3JnL2RjL2VsZW1lbnRzLzEuMS8iIHhtbG5zOmlua3NjYXBlPSJodHRwOi8vd3d3Lmlua3NjYXBlLm9yZy9uYW1lc3BhY2VzL2lua3NjYXBlIiB4bWxuczpyZGY9Imh0dHA6Ly93d3cudzMub3JnLzE5OTkvMDIvMjItcmRmLXN5bnRheC1ucyMiIHhtbG5zOnNvZGlwb2RpPSJodHRwOi8vc29kaXBvZGkuc291cmNlZm9yZ2UubmV0L0RURC9zb2RpcG9kaS0wLmR0ZCIgeG1sbnM6c3ZnPSJodHRwOi8vd3d3LnczLm9yZy8yMDAwL3N2ZyIgeG1sbnM9Imh0dHA6Ly93d3cudzMub3JnLzIwMDAvc3ZnIiB4bWxuczp4bGluaz0iaHR0cDovL3d3dy53My5vcmcvMTk5OS94bGluayIgdmVyc2lvbj0iMS4xIiBpZD0ic3ZnNTk4MDUiIGlua3NjYXBlOnZlcnNpb249IjAuOTIuMyAoMjQwNTU0NiwgMjAxOC0wMy0xMSkiIHNvZGlwb2RpOmRvY25hbWU9ImJyb3dzZXIuc3ZnIiB4PSIwcHgiIHk9IjBweCIgdmlld0JveD0iMCAwIDg4LjE3IDc3LjA1IiBzdHlsZT0iZW5hYmxlLWJhY2tncm91bmQ6bmV3IDAgMCA4OC4xNyA3Ny4wNTsiIHhtbDpzcGFjZT0icHJlc2VydmUiPiYjeGE7PHNvZGlwb2RpOm5hbWVkdmlldyBib3JkZXJjb2xvcj0iIzY2NjY2NiIgYm9yZGVyb3BhY2l0eT0iMSIgZml0LW1hcmdpbi1ib3R0b209IjAiIGZpdC1tYXJnaW4tbGVmdD0iMCIgZml0LW1hcmdpbi1yaWdodD0iMCIgZml0LW1hcmdpbi10b3A9IjAiIGdyaWR0b2xlcmFuY2U9IjEwIiBndWlkZXRvbGVyYW5jZT0iMTAiIGlkPSJuYW1lZHZpZXc1OTgwNyIgaW5rc2NhcGU6Y3VycmVudC1sYXllcj0ic3ZnNTk4MDUiIGlua3NjYXBlOmN4PSI1OC43NzgxMjUiIGlua3NjYXBlOmN5PSI1MS4zNjIyMTUiIGlua3NjYXBlOnBhZ2VvcGFjaXR5PSIwIiBpbmtzY2FwZTpwYWdlc2hhZG93PSIyIiBpbmtzY2FwZTp3aW5kb3ctaGVpZ2h0PSIxMDE3IiBpbmtzY2FwZTp3aW5kb3ctbWF4aW1pemVkPSIxIiBpbmtzY2FwZTp3aW5kb3ctd2lkdGg9IjE5MjAiIGlua3NjYXBlOndpbmRvdy14PSItOCIgaW5rc2NhcGU6d2luZG93LXk9Ii04IiBpbmtzY2FwZTp6b29tPSI4LjA5ODMyMjkiIG9iamVjdHRvbGVyYW5jZT0iMTAiIHBhZ2Vjb2xvcj0iI2ZmZmZmZiIgc2hvd2dyaWQ9ImZhbHNlIj4mI3hhOwk8L3NvZGlwb2RpOm5hbWVkdmlldz4mI3hhOzxnIGlkPSJnNTk4MDMiIHRyYW5zZm9ybT0idHJhbnNsYXRlKC0xLjYyMDkzLC0xLjYxODgxKSI+JiN4YTsJPHRpdGxlIGlkPSJ0aXRsZTU5NzY4Ij5QYWdlLTE8L3RpdGxlPiYjeGE7CTxnIGlkPSJncm91cDUyMzMtMSIgdHJhbnNmb3JtPSJ0cmFuc2xhdGUoMS42MjA5MywtMS42MjA5MykiPiYjeGE7CQk8dGl0bGUgaWQ9InRpdGxlNTk3NzAiPkJyb3dzZXI8L3RpdGxlPiYjeGE7CQk8ZyBpZD0ic2hhcGU1MjM0LTIiPiYjeGE7CQkJPHRpdGxlIGlkPSJ0aXRsZTU5NzcyIj5wYXRoMzM3PC90aXRsZT4mI3hhOwkJCTxwYXRoIGlkPSJwYXRoNTk3NzQiIGlua3NjYXBlOmNvbm5lY3Rvci1jdXJ2YXR1cmU9IjAiIHN0eWxlPSJmaWxsOiM1OUI0RDk7IiBkPSJNMCw3Ni43N2MwLjAxLDEuOTQsMS41OSwzLjUyLDMuNTMsMy41Mmg4MS4xMSAgICAgYzEuOTQsMCwzLjUyLTEuNTgsMy41My0zLjUydi01NS4ySDBWNzYuNzd6Ii8+JiN4YTsJCTwvZz4mI3hhOwkJPGcgaWQ9InNoYXBlNTIzNS00IiB0cmFuc2Zvcm09InRyYW5zbGF0ZSgwLC01NC44NDU5KSI+JiN4YTsJCQk8dGl0bGUgaWQ9InRpdGxlNTk3NzciPnBhdGgzMzk8L3RpdGxlPiYjeGE7CQkJPHBhdGggaWQ9InBhdGg1OTc3OSIgaW5rc2NhcGU6Y29ubmVjdG9yLWN1cnZhdHVyZT0iMCIgc3R5bGU9ImZpbGw6I0EwQTFBMjsiIGQ9Ik04NC42NCw1OC4wOUgzLjUzYy0xLjk0LDAtMy41MiwxLjU4LTMuNTMsMy41MiAgICAgdjE4LjY4aDg4LjE3VjYxLjYxQzg4LjE2LDU5LjY3LDg2LjU4LDU4LjA5LDg0LjY0LDU4LjA5eiIvPiYjeGE7CQk8L2c+JiN4YTsJCTxnIGlkPSJzaGFwZTUyMzYtNiIgdHJhbnNmb3JtPSJ0cmFuc2xhdGUoMCwtMS45NDAyNikiPiYjeGE7CQkJPHRpdGxlIGlkPSJ0aXRsZTU5NzgyIj5wYXRoMzQxPC90aXRsZT4mI3hhOwkJCTxwYXRoIGlkPSJwYXRoNTk3ODQiIGlua3NjYXBlOmNvbm5lY3Rvci1jdXJ2YXR1cmU9IjAiIHN0eWxlPSJmaWxsOiNGRkZGRkY7ZmlsbC1vcGFjaXR5OjAuMjsiIGQ9Ik0zLjUzLDUuMTggICAgIEMxLjU5LDUuMTgsMC4wMSw2Ljc2LDAsOC43djY4LjA3YzAuMDEsMS45NCwxLjU5LDMuNTIsMy41MywzLjUyaDMuODhMNzYuODgsNS4xOEgzLjUzeiIvPiYjeGE7CQk8L2c+JiN4YTsJCTxnIGlkPSJzaGFwZTUyMzctOCIgdHJhbnNmb3JtPSJ0cmFuc2xhdGUoMjIuNzQ4MiwtNjEuNzE3MSkiPiYjeGE7CQkJPHRpdGxlIGlkPSJ0aXRsZTU5Nzg3Ij5yZWN0MzQzPC90aXRsZT4mI3hhOwkJCTxyZWN0IGlkPSJyZWN0NTk3ODkiIHg9IjAiIHk9IjczLjQyIiBzdHlsZT0iZmlsbDojRkZGRkZGOyIgd2lkdGg9IjU5LjQzIiBoZWlnaHQ9IjYuODgiLz4mI3hhOwkJPC9nPiYjeGE7CQk8ZyBpZD0ic2hhcGU1MjM4LTEwIiB0cmFuc2Zvcm09InRyYW5zbGF0ZSg1LjE3NDY5LC01OS4xMzQpIj4mI3hhOwkJCTx0aXRsZSBpZD0idGl0bGU1OTc5MiI+cGF0aDM0NTwvdGl0bGU+JiN4YTsJCQk8cGF0aCBpZD0icGF0aDU5Nzk0IiBpbmtzY2FwZTpjb25uZWN0b3ItY3VydmF0dXJlPSIwIiBzdHlsZT0iZmlsbDojNTlCNEQ5OyIgZD0iTTE0Ljc1LDc0LjE4YzAsNC43Ny0zLjg3LDguNjQtOC42NCw4LjY0ICAgICBzLTguNjQtMy44Ny04LjY0LTguNjRjMC00Ljc3LDMuODctOC42NCw4LjY0LTguNjRjMCwwLDAsMCwwLDBDMTAuODgsNjUuNTUsMTQuNzQsNjkuNDEsMTQuNzUsNzQuMTh6Ii8+JiN4YTsJCTwvZz4mI3hhOwkJPGcgaWQ9InNoYXBlNTIzOS0xMiIgdHJhbnNmb3JtPSJ0cmFuc2xhdGUoNy4wNTI2OSwtNjAuMTMwMikiPiYjeGE7CQkJPHRpdGxlIGlkPSJ0aXRsZTU5Nzk3Ij5wb2x5Z29uMzQ3PC90aXRsZT4mI3hhOwkJCTxwYXRoIGlkPSJwYXRoNTk3OTkiIGlua3NjYXBlOmNvbm5lY3Rvci1jdXJ2YXR1cmU9IjAiIHN0eWxlPSJmaWxsOiNGRkZGRkY7IiBkPSJNNy4yMyw4MC4yOUg1LjExTDAsNzUuMzZsNS4xMS00Ljk0aDIuMTIgICAgIGwtMy44OCw0LjA2aDkuNTJ2MS43NkgzLjM1TDcuMjMsODAuMjl6Ii8+JiN4YTsJCTwvZz4mI3hhOwk8L2c+JiN4YTs8L2c+JiN4YTs8L3N2Zz4=;" vertex="1" parent="1">
          <mxGeometry x="613" y="190" width="88" height="77" as="geometry" />
        </mxCell>
        <mxCell id="JtbzLgIfe00LMyJNrhl2-1" value="" style="shape=image;verticalLabelPosition=bottom;labelBackgroundColor=#ffffff;verticalAlign=top;aspect=fixed;imageAspect=0;image=data:image/svg+xml,PHN2ZyB4bWxuczpjYz0iaHR0cDovL2NyZWF0aXZlY29tbW9ucy5vcmcvbnMjIiB4bWxuczpkYz0iaHR0cDovL3B1cmwub3JnL2RjL2VsZW1lbnRzLzEuMS8iIHhtbG5zOmlua3NjYXBlPSJodHRwOi8vd3d3Lmlua3NjYXBlLm9yZy9uYW1lc3BhY2VzL2lua3NjYXBlIiB4bWxuczpyZGY9Imh0dHA6Ly93d3cudzMub3JnLzE5OTkvMDIvMjItcmRmLXN5bnRheC1ucyMiIHhtbG5zOnNvZGlwb2RpPSJodHRwOi8vc29kaXBvZGkuc291cmNlZm9yZ2UubmV0L0RURC9zb2RpcG9kaS0wLmR0ZCIgeG1sbnM6c3ZnPSJodHRwOi8vd3d3LnczLm9yZy8yMDAwL3N2ZyIgeG1sbnM9Imh0dHA6Ly93d3cudzMub3JnLzIwMDAvc3ZnIiB4bWxuczp4bGluaz0iaHR0cDovL3d3dy53My5vcmcvMTk5OS94bGluayIgdmVyc2lvbj0iMS4xIiBpZD0ic3ZnNTc1ODIiIGlua3NjYXBlOnZlcnNpb249IjAuOTIuMyAoMjQwNTU0NiwgMjAxOC0wMy0xMSkiIHNvZGlwb2RpOmRvY25hbWU9ImFmZmlsaWF0ZV9wdWJsaXNoZXIuc3ZnIiB4PSIwcHgiIHk9IjBweCIgdmlld0JveD0iMCAwIDgwLjE5IDc0LjE0IiBzdHlsZT0iZW5hYmxlLWJhY2tncm91bmQ6bmV3IDAgMCA4MC4xOSA3NC4xNDsiIHhtbDpzcGFjZT0icHJlc2VydmUiPiYjeGE7PHNvZGlwb2RpOm5hbWVkdmlldyBib3JkZXJjb2xvcj0iIzY2NjY2NiIgYm9yZGVyb3BhY2l0eT0iMSIgZml0LW1hcmdpbi1ib3R0b209IjAiIGZpdC1tYXJnaW4tbGVmdD0iMCIgZml0LW1hcmdpbi1yaWdodD0iMCIgZml0LW1hcmdpbi10b3A9IjAiIGdyaWR0b2xlcmFuY2U9IjEwIiBndWlkZXRvbGVyYW5jZT0iMTAiIGlkPSJuYW1lZHZpZXc1NzU4NCIgaW5rc2NhcGU6Y3VycmVudC1sYXllcj0ic3ZnNTc1ODIiIGlua3NjYXBlOmN4PSI1My40NjI0MDIiIGlua3NjYXBlOmN5PSI0OS40Mjg5NTEiIGlua3NjYXBlOnBhZ2VvcGFjaXR5PSIwIiBpbmtzY2FwZTpwYWdlc2hhZG93PSIyIiBpbmtzY2FwZTp3aW5kb3ctaGVpZ2h0PSIxMDE3IiBpbmtzY2FwZTp3aW5kb3ctbWF4aW1pemVkPSIxIiBpbmtzY2FwZTp3aW5kb3ctd2lkdGg9IjE5MjAiIGlua3NjYXBlOndpbmRvdy14PSItOCIgaW5rc2NhcGU6d2luZG93LXk9Ii04IiBpbmtzY2FwZTp6b29tPSI4Ljc3MTAxNCIgb2JqZWN0dG9sZXJhbmNlPSIxMCIgcGFnZWNvbG9yPSIjZmZmZmZmIiBzaG93Z3JpZD0iZmFsc2UiPiYjeGE7CTwvc29kaXBvZGk6bmFtZWR2aWV3PiYjeGE7PGcgaWQ9Imc1NzU4MCIgdHJhbnNmb3JtPSJ0cmFuc2xhdGUoMCwtMS4wNzA0NzU3ZS00KSI+JiN4YTsJPHRpdGxlIGlkPSJ0aXRsZTU3NTczIj5QYWdlLTE8L3RpdGxlPiYjeGE7CTxnIGlkPSJzaGFwZTU0ODUtMSI+JiN4YTsJCTx0aXRsZSBpZD0idGl0bGU1NzU3NSI+QWZmaWxpYXRlIFB1Ymxpc2hlcjwvdGl0bGU+JiN4YTsJCTxwYXRoIGlkPSJwYXRoNTc1NzciIGlua3NjYXBlOmNvbm5lY3Rvci1jdXJ2YXR1cmU9IjAiIHN0eWxlPSJmaWxsOiMzRjU3NjU7IiBkPSJNNjIuMzMsMjAuMTRjMCwwLDAuMTEsMCwxMy44NSwwICAgIGMyLjIyLDAsNC4wMSwxLjk2LDQuMDEsNC4zM2MwLDAsMCwwLjE1LDAsMjAuNDFjMCwyLjM3LTEuNzksNC4zMy00LjAxLDQuMzNjMCwwLDAsMC4xMSwwLDE0LjU1YzAsMi4zNy0xLjgsNC4zMy00LjAyLDQuMzMgICAgYzAsMC0wLjA0LDAtNi4wMSwwYy0yLjAzLDAtMy44Mi0xLjk2LTMuODItNC4zM2MwLDAsMC0wLjEyLDAtMTQuNTVjLTIuMjIsMC00LjAyLTEuOTYtNC4wMi00LjMzYzAsMCwwLTAuMTUsMC0yMC40MSAgICBDNTguMzEsMjIuMSw2MC4xMSwyMC4xNCw2Mi4zMywyMC4xNHogTTQuMDIsMjAuMTRjMCwwLDAuMDcsMCwxMy44MSwwYzIuMTgsMCwzLjk4LDEuOTYsMy45OCw0LjMzYzAsMCwwLDAuMDgsMCwyMC40MSAgICBjMCwyLjM3LTEuOCw0LjMzLTMuOTgsNC4zM2MwLDAsMCwwLjA3LDAsMTQuNTVjMCwyLjM3LTEuOCw0LjMzLTMuNzksNC4zM2MwLDAtMC4wNywwLTYuMDEsMGMtMi4yMSwwLTQuMDEtMS45Ni00LjAxLTQuMzMgICAgYzAsMCwwLTAuMDgsMC0xNC41NUMxLjg0LDQ5LjIxLDAsNDcuMjUsMCw0NC44OGMwLDAsMC0wLjA4LDAtMjAuNDFDMCwyMi4xLDEuODQsMjAuMTQsNC4wMiwyMC4xNHogTTMyLjA2LDE4LjE5ICAgIGMwLDAsMC4xNiwwLDE2LjA3LDBjMi42NCwwLDQuODIsMi40MSw0LjgyLDUuMjFjMCwwLDAsMC4xNSwwLDIzLjY2YzAsMi44LTIuMTgsNS4yMS00LjgyLDUuMjFjMCwwLDAsMC4xMiwwLDE2LjcgICAgYzAsMi43OS0xLjk5LDUuMTctNC41OSw1LjE3YzAsMC0wLjA4LDAtNi44NSwwYy0yLjYsMC00LjYzLTIuMzgtNC42My01LjE3YzAsMCwwLTAuMTYsMC0xNi43Yy0yLjYsMC00LjgyLTIuNDEtNC44Mi01LjIxICAgIGMwLDAsMC0wLjE1LDAtMjMuNjZDMjcuMjQsMjAuNiwyOS40NiwxOC4xOSwzMi4wNiwxOC4xOXogTTY5LjI1LDQuNTJjMy42NCwwLDYuNTQsMy4yMiw2LjU0LDcuMTZzLTIuOSw3LjE2LTYuNTQsNy4xNiAgICBjLTMuNiwwLTYuNS0zLjIyLTYuNS03LjE2UzY1LjY1LDQuNTIsNjkuMjUsNC41MnogTTEwLjksNC41MmMzLjYsMCw2LjUxLDMuMjIsNi41MSw3LjE2cy0yLjkxLDcuMTYtNi41MSw3LjE2ICAgIGMtMy41NSwwLTYuNDYtMy4yMi02LjQ2LTcuMTZTNy4zNSw0LjUyLDEwLjksNC41MnogTTQwLjA2LDBjNC4yNSwwLDcuNjUsMy43NSw3LjY1LDguMzVjMCw0LjU1LTMuNCw4LjMxLTcuNjUsOC4zMSAgICBjLTQuMjEsMC03LjYyLTMuNzYtNy42Mi04LjMxQzMyLjQ0LDMuNzUsMzUuODUsMCw0MC4wNiwweiIvPiYjeGE7CTwvZz4mI3hhOzwvZz4mI3hhOzwvc3ZnPg==;" vertex="1" parent="1">
          <mxGeometry x="670" y="215.67" width="50" height="46.25" as="geometry" />
        </mxCell>
        <mxCell id="JtbzLgIfe00LMyJNrhl2-21" value="" style="aspect=fixed;perimeter=ellipsePerimeter;html=1;align=center;shadow=0;dashed=0;fontColor=#4277BB;labelBackgroundColor=#ffffff;fontSize=12;spacingTop=3;image;image=img/lib/ibm/blockchain/message_bus.svg;" vertex="1" parent="1">
          <mxGeometry x="317.75" y="340" width="66" height="66" as="geometry" />
        </mxCell>
        <mxCell id="JtbzLgIfe00LMyJNrhl2-32" value="" style="group" vertex="1" connectable="0" parent="1">
          <mxGeometry x="160" y="230" width="130" height="118" as="geometry" />
        </mxCell>
        <mxCell id="JtbzLgIfe00LMyJNrhl2-15" value="" style="outlineConnect=0;fontColor=#232F3E;gradientColor=none;fillColor=#D05C17;strokeColor=none;dashed=0;verticalLabelPosition=bottom;verticalAlign=top;align=center;html=1;fontSize=12;fontStyle=0;aspect=fixed;pointerEvents=1;shape=mxgraph.aws4.lambda_function;" vertex="1" parent="JtbzLgIfe00LMyJNrhl2-32">
          <mxGeometry x="43.54785478547855" y="28" width="39.603960396039604" height="39.603960396039604" as="geometry" />
        </mxCell>
        <mxCell id="JtbzLgIfe00LMyJNrhl2-31" value="Backend microservice" style="fillColor=none;strokeColor=#5A6C86;dashed=1;verticalAlign=top;fontStyle=0;fontColor=#5A6C86;" vertex="1" parent="JtbzLgIfe00LMyJNrhl2-32">
          <mxGeometry width="130" height="90" as="geometry" />
        </mxCell>
        <mxCell id="JtbzLgIfe00LMyJNrhl2-33" value="API Gateway" style="outlineConnect=0;fontColor=#232F3E;gradientColor=#945DF2;gradientDirection=north;fillColor=#5A30B5;strokeColor=#ffffff;dashed=0;verticalLabelPosition=bottom;verticalAlign=top;align=center;html=1;fontSize=12;fontStyle=0;aspect=fixed;shape=mxgraph.aws4.resourceIcon;resIcon=mxgraph.aws4.api_gateway;" vertex="1" parent="JtbzLgIfe00LMyJNrhl2-32">
          <mxGeometry x="-30" y="60" width="58" height="58" as="geometry" />
        </mxCell>
        <mxCell id="JtbzLgIfe00LMyJNrhl2-34" value="Audit log" style="aspect=fixed;perimeter=ellipsePerimeter;html=1;align=center;shadow=0;dashed=0;spacingTop=3;image;image=img/lib/active_directory/database.svg;" vertex="1" parent="1">
          <mxGeometry x="350" y="450" width="68.92" height="51" as="geometry" />
        </mxCell>
      </root>
    </mxGraphModel>
  </diagram>
</mxfile>
